<?xml version="1.0" standalone="no"?>
<!DOCTYPE svg PUBLIC "-//W3C//DTD SVG 20010904//EN"
 "http://www.w3.org/TR/2001/REC-SVG-20010904/DTD/svg10.dtd">
<svg version="1.0" xmlns="http://www.w3.org/2000/svg"
 width="1958.000000pt" height="1958.000000pt" viewBox="0 0 1958.000000 1958.000000"
 preserveAspectRatio="xMidYMid meet">
<metadata>
Created by potrace 1.11, written by Peter Selinger 2001-2013
</metadata>
<g transform="translate(0.000000,1958.000000) scale(0.100000,-0.100000)"
fill="#000000" stroke="none">
<path d="M9989 19545 c-3 -2 -104 -5 -225 -6 -157 -1 -254 -7 -344 -21 -69
-10 -141 -20 -161 -21 -21 -1 -35 -5 -32 -9 2 -5 -6 -8 -19 -9 -28 -1 -29 -1
-154 -38 -55 -17 -118 -38 -138 -46 -20 -9 -41 -13 -46 -10 -6 4 -10 2 -10 -2
0 -9 -69 -39 -82 -35 -5 1 -8 -2 -8 -6 0 -12 -68 -34 -81 -26 -8 4 -9 3 -5 -4
4 -7 -20 -25 -64 -47 -38 -19 -70 -33 -70 -30 0 3 -8 -2 -17 -10 -10 -8 -22
-15 -27 -14 -5 0 -12 -3 -15 -8 -10 -15 -204 -138 -213 -135 -4 1 -8 -2 -8 -7
0 -12 -151 -134 -166 -134 -7 0 -12 -3 -11 -7 1 -3 -45 -53 -103 -111 -111
-110 -170 -176 -221 -247 -17 -23 -35 -39 -40 -36 -5 3 -9 2 -8 -3 4 -21 -2
-34 -13 -27 -7 4 -8 3 -4 -4 4 -6 -2 -20 -14 -32 -11 -11 -18 -20 -15 -20 3 0
-2 -11 -11 -25 -9 -14 -21 -22 -27 -18 -6 3 -7 1 -3 -5 3 -6 -15 -44 -40 -84
-26 -40 -47 -75 -47 -78 2 -15 -20 -40 -29 -34 -6 4 -8 3 -5 -4 10 -15 -3 -43
-16 -35 -6 3 -7 1 -3 -5 3 -6 -3 -27 -14 -46 -11 -20 -19 -39 -19 -42 2 -12
-24 -64 -33 -64 -5 0 -7 -4 -3 -10 3 -5 2 -17 -3 -27 -18 -35 -42 -94 -42
-103 0 -5 -5 -21 -12 -37 -6 -15 -12 -34 -14 -42 -1 -8 -8 -17 -15 -21 -6 -4
-9 -12 -6 -17 3 -5 -4 -47 -17 -94 -13 -46 -31 -129 -40 -184 -22 -128 -24
-134 -36 -115 -6 8 -10 10 -10 5 0 -6 5 -16 11 -22 7 -7 7 -39 1 -104 -10 -92
-8 -385 3 -503 3 -33 19 -125 35 -205 16 -80 27 -148 24 -152 -2 -4 0 -9 4
-11 8 -3 42 -115 44 -145 1 -7 5 -13 9 -13 5 0 11 -17 15 -37 4 -21 11 -43 16
-50 5 -7 6 -18 2 -24 -4 -7 -3 -9 3 -6 8 5 25 -29 25 -50 -1 -7 153 -305 173
-338 14 -22 24 -50 22 -63 -3 -17 -1 -20 9 -11 9 8 16 5 24 -12 7 -12 27 -42
46 -66 19 -25 31 -50 28 -55 -4 -6 -2 -8 3 -5 6 4 17 -3 26 -16 8 -12 35 -47
60 -76 26 -30 44 -58 41 -63 -3 -5 -1 -7 4 -6 13 4 153 -148 144 -156 -4 -4
-2 -6 3 -5 6 2 21 -5 34 -16 69 -57 100 -88 96 -95 -3 -4 3 -7 13 -6 9 0 16
-5 14 -12 -1 -8 2 -11 8 -7 5 3 13 -1 16 -9 3 -9 11 -16 16 -16 19 0 88 -62
82 -72 -4 -7 -2 -8 4 -4 11 7 187 -105 204 -129 4 -5 8 -6 8 -1 0 5 6 3 14 -3
7 -6 33 -22 57 -34 24 -13 58 -31 74 -40 17 -9 58 -28 92 -43 36 -15 60 -31
56 -37 -3 -6 -1 -7 6 -3 16 10 53 -3 45 -16 -4 -7 -2 -8 5 -4 14 9 111 -24
111 -37 0 -4 5 -5 10 -2 6 4 24 0 40 -9 17 -8 55 -20 85 -26 30 -6 55 -15 55
-19 0 -4 10 -7 23 -7 l22 1 3 -717 2 -717 -35 -7 c-19 -3 -42 -4 -50 0 -9 3
-14 2 -11 -2 2 -4 -41 -18 -97 -31 -56 -12 -112 -27 -125 -32 -18 -7 -21 -6
-16 3 5 8 1 7 -10 -2 -31 -25 -123 -49 -136 -36 -8 8 -11 7 -8 -4 2 -10 -4
-15 -19 -14 -12 0 -20 -3 -17 -7 2 -4 -13 -13 -33 -19 -51 -17 -152 -57 -183
-74 -14 -7 -33 -12 -43 -11 -9 2 -15 0 -13 -4 7 -11 -183 -103 -196 -95 -6 4
-8 3 -5 -3 4 -6 -18 -23 -50 -39 -32 -16 -64 -35 -71 -42 -24 -21 -52 -33 -64
-26 -7 4 -8 3 -4 -5 8 -12 -33 -32 -49 -23 -5 3 -7 2 -3 -3 9 -9 -4 -22 -63
-63 -26 -17 -50 -28 -54 -24 -5 4 -5 2 -2 -5 6 -10 -16 -28 -86 -70 -11 -6
-22 -15 -26 -20 -3 -4 -26 -25 -51 -47 -108 -93 -197 -175 -243 -223 -27 -29
-54 -50 -59 -47 -4 3 -7 1 -6 -4 2 -6 -32 -51 -75 -101 l-78 -90 -34 22 c-18
12 -31 25 -29 29 3 5 0 8 -6 8 -10 0 -203 127 -288 190 -18 13 -30 30 -28 37
3 7 1 13 -4 13 -6 0 -10 -5 -10 -10 0 -6 -18 2 -40 16 -22 15 -37 31 -34 35 3
5 0 8 -8 7 -7 -2 -12 3 -10 10 1 8 -2 11 -9 7 -11 -7 -109 54 -109 68 0 4 -6
7 -12 7 -20 1 -88 56 -80 65 4 5 2 5 -5 2 -6 -4 -24 3 -40 15 -15 13 -36 28
-45 33 -9 6 -36 24 -59 41 -24 17 -93 66 -154 108 -60 43 -109 82 -107 88 1 5
-2 7 -8 3 -5 -3 -10 -1 -10 5 0 6 -4 9 -9 5 -5 -3 -12 -2 -15 3 -7 11 39 184
47 176 3 -4 5 3 2 15 -2 12 2 54 10 94 21 109 35 259 37 384 0 79 4 111 12
106 6 -3 5 0 -1 8 -7 7 -13 38 -13 69 0 30 -7 112 -16 180 -9 69 -17 139 -19
155 -3 17 -11 56 -20 89 -9 32 -14 61 -11 64 3 3 2 10 -3 16 -8 10 -20 47 -38
121 -3 11 -6 28 -6 37 -1 9 -4 15 -8 12 -9 -5 -21 44 -14 56 4 6 1 10 -4 10
-6 0 -10 3 -9 8 1 8 -30 80 -68 156 -19 39 -22 51 -12 58 10 6 10 8 -2 8 -13
0 -93 138 -91 155 1 3 -9 15 -20 26 -17 17 -19 23 -8 30 11 7 10 9 -3 9 -17 0
-23 12 -18 35 1 5 -2 7 -6 2 -8 -8 -97 120 -97 140 0 7 -4 10 -8 8 -4 -3 -15
8 -25 23 -10 15 -24 33 -31 40 -7 8 -10 18 -7 24 4 6 2 8 -3 5 -6 -4 -18 3
-26 16 -8 12 -40 49 -71 82 -30 33 -54 66 -51 73 3 7 1 11 -4 7 -5 -3 -34 19
-64 47 -80 78 -149 138 -158 138 -4 0 -9 3 -11 8 -1 4 -26 25 -55 46 -29 22
-49 44 -46 49 3 6 1 7 -6 3 -13 -8 -74 31 -66 44 3 4 -3 7 -13 6 -9 0 -16 5
-14 12 1 8 -2 11 -7 7 -9 -5 -58 19 -71 36 -3 3 -28 18 -56 32 -28 14 -66 39
-85 54 -18 15 -30 22 -25 15 4 -7 -10 -3 -30 9 -21 11 -45 22 -54 24 -13 3
-165 67 -225 95 -11 5 -57 19 -102 31 -45 12 -80 25 -78 29 2 4 -7 5 -20 2
-15 -2 -25 0 -25 7 0 7 -4 10 -9 6 -8 -5 -32 -1 -126 21 -11 3 -80 13 -153 22
-73 10 -131 20 -128 22 2 3 -113 2 -257 -1 -144 -4 -266 -4 -271 -1 -5 3 -6 0
-2 -6 4 -6 -1 -11 -11 -11 -10 0 -40 -3 -68 -7 -27 -4 -62 -8 -77 -8 -14 -1
-25 -4 -23 -7 2 -3 -24 -11 -58 -18 -34 -7 -93 -21 -130 -32 -38 -11 -75 -18
-83 -15 -8 3 -13 2 -10 -3 3 -5 -1 -12 -10 -15 -8 -3 -12 -2 -9 4 10 16 -7 12
-19 -5 -6 -8 -20 -16 -31 -18 -11 -2 -38 -11 -59 -21 -22 -9 -46 -14 -53 -11
-8 2 -11 0 -8 -5 3 -6 1 -11 -4 -11 -20 -3 -26 -5 -49 -17 -12 -7 -27 -10 -32
-7 -6 3 -10 1 -10 -4 0 -10 -188 -110 -202 -107 -3 0 -17 -9 -30 -20 -32 -30
-140 -97 -156 -97 -6 0 -10 -3 -7 -5 3 -3 -6 -12 -19 -21 -13 -9 -47 -35 -76
-58 -55 -46 -76 -54 -66 -26 5 11 -1 9 -17 -7 -25 -27 -27 -41 -2 -20 8 7 15
9 15 4 0 -5 -12 -18 -27 -28 -16 -12 -23 -14 -18 -5 5 8 5 11 -1 6 -5 -5 -9
-12 -9 -17 0 -5 -24 -31 -54 -59 -46 -43 -57 -49 -70 -38 -14 10 -14 10 -3 -4
11 -14 7 -22 -24 -53 -31 -31 -39 -35 -53 -24 -14 12 -14 11 -2 -4 11 -15 9
-21 -15 -46 -16 -16 -29 -31 -29 -33 0 -5 -53 -72 -102 -129 -18 -21 -33 -40
-33 -44 0 -7 -12 -23 -42 -57 -10 -10 -19 -22 -20 -26 -6 -25 -42 -72 -51 -66
-6 3 -7 1 -3 -6 4 -6 -12 -46 -37 -89 -42 -73 -86 -162 -129 -262 -35 -79 -41
-95 -44 -110 -2 -8 -7 -16 -13 -18 -5 -2 -8 -9 -5 -16 3 -7 -1 -26 -7 -42 -15
-34 -16 -40 -18 -58 0 -8 -8 -22 -17 -30 -12 -12 -12 -16 -2 -16 8 0 9 -3 3
-8 -11 -8 -13 -15 -19 -65 -3 -18 -12 -61 -20 -97 -44 -187 -65 -577 -43 -770
10 -85 33 -223 46 -283 6 -27 9 -53 6 -58 -4 -5 -1 -9 6 -9 7 0 9 -10 7 -25
-3 -13 -1 -22 3 -19 5 3 9 -2 9 -11 0 -19 22 -91 60 -197 15 -43 24 -75 19
-72 -5 3 -9 0 -9 -5 0 -6 6 -11 14 -11 8 0 17 -12 21 -27 7 -30 109 -239 128
-262 10 -12 9 -13 -3 -7 -9 4 -8 2 2 -7 10 -8 15 -17 11 -20 -3 -4 -2 -7 4 -7
9 0 30 -35 31 -54 0 -5 6 -12 14 -17 7 -5 13 -12 13 -17 0 -5 7 -16 17 -25 9
-9 26 -33 38 -53 19 -30 21 -38 9 -46 -10 -6 -7 -7 10 -3 16 5 21 4 17 -4 -4
-6 -3 -11 1 -11 5 0 27 -23 48 -52 57 -75 108 -134 181 -209 35 -36 62 -69 59
-72 -3 -4 -2 -5 1 -2 10 7 169 -137 168 -151 -1 -7 4 -10 10 -8 7 2 50 -24 97
-58 47 -35 97 -69 112 -77 14 -8 24 -19 20 -24 -3 -6 -2 -7 4 -4 5 3 22 -2 37
-12 15 -10 24 -21 19 -23 -4 -3 -2 -3 6 -1 14 3 92 -37 124 -65 9 -8 17 -12
17 -8 0 4 17 -2 38 -13 20 -11 59 -30 86 -41 28 -12 56 -30 63 -40 8 -11 19
-20 25 -20 7 0 3 7 -8 15 -25 19 -15 19 32 -1 74 -31 89 -37 99 -40 6 -2 53
-15 105 -30 52 -14 97 -29 100 -33 3 -3 14 -6 25 -6 11 1 36 -3 55 -7 68 -16
217 -37 345 -48 116 -11 372 -8 460 5 17 2 68 9 115 15 47 6 130 23 184 36 54
14 105 23 113 20 8 -3 12 -2 9 3 -7 10 41 24 54 16 5 -3 23 4 39 16 16 12 34
18 40 15 6 -4 11 -3 11 2 0 5 21 15 48 22 26 7 52 17 58 21 6 5 14 6 17 2 4
-3 7 -1 7 5 0 7 6 12 13 12 6 0 48 18 92 40 57 28 82 36 87 27 5 -9 8 -8 8 3
0 20 56 54 72 44 7 -5 8 -3 3 6 -6 10 -4 12 9 7 9 -4 15 -3 12 1 -5 8 131 97
147 97 4 0 11 5 15 12 4 6 13 13 21 15 7 2 24 13 37 26 13 13 29 20 36 16 6
-4 9 -3 6 2 -3 5 0 15 8 22 8 7 14 11 14 8 0 -2 14 9 32 25 24 23 33 27 40 17
7 -10 8 -9 6 4 -4 19 52 70 69 64 7 -3 10 1 7 7 -7 20 162 181 182 173 13 -5
15 -4 5 7 -8 11 -8 17 1 25 10 8 31 -3 81 -39 37 -28 65 -54 62 -58 -3 -5 3
-7 14 -4 12 3 24 -4 35 -19 9 -12 18 -21 21 -18 2 3 15 -4 27 -15 13 -10 41
-29 63 -41 22 -12 39 -27 37 -34 -1 -6 2 -9 7 -5 6 3 18 -3 28 -15 10 -11 23
-20 30 -20 7 0 13 -4 13 -9 0 -5 8 -12 18 -16 16 -5 83 -50 147 -99 11 -9 48
-34 82 -57 35 -23 60 -46 56 -52 -3 -6 -1 -7 6 -3 10 7 50 -23 43 -32 -2 -2 0
-7 4 -10 4 -4 4 -1 0 6 -4 6 -3 12 1 12 11 0 97 -62 102 -73 2 -5 14 -12 28
-18 13 -5 21 -14 18 -19 -4 -6 -3 -9 2 -8 13 4 133 -71 133 -83 0 -5 6 -9 13
-9 12 0 25 -8 74 -47 l22 -18 -26 -77 c-14 -43 -29 -75 -34 -72 -5 3 -6 -1 -3
-9 5 -13 -17 -119 -33 -157 -8 -19 -10 -29 -11 -63 -1 -19 -6 -26 -14 -21 -6
4 -8 3 -4 -4 3 -6 -5 -79 -19 -164 -63 -392 -56 -793 21 -1166 14 -67 22 -127
18 -134 -4 -6 -3 -8 3 -5 6 4 15 -18 23 -51 7 -31 29 -109 50 -172 21 -63 39
-120 41 -126 2 -7 0 -13 -6 -14 -5 -2 -16 -11 -23 -22 -7 -10 -17 -16 -22 -13
-5 3 -12 -1 -17 -8 -15 -25 -188 -147 -201 -142 -7 3 -11 1 -8 -4 6 -9 -55
-61 -70 -61 -4 0 -18 -10 -32 -22 -23 -22 -24 -22 -37 -4 -13 18 -14 18 -12
-2 0 -11 6 -18 12 -15 5 2 -1 -5 -15 -16 -24 -20 -36 -25 -53 -22 -4 0 -6 -3
-5 -8 2 -5 0 -10 -4 -10 -4 -1 -20 -13 -34 -26 -39 -36 -121 -85 -129 -77 -4
4 -5 0 -3 -8 1 -8 -3 -14 -9 -12 -7 1 -13 -3 -13 -9 0 -5 -4 -7 -10 -4 -5 3
-10 -1 -10 -9 0 -9 -5 -16 -11 -16 -5 0 -7 5 -3 12 4 7 3 8 -5 4 -6 -4 -9 -11
-6 -16 6 -10 -35 -36 -50 -31 -5 1 -7 -1 -3 -5 10 -10 -60 -57 -72 -49 -6 4
-9 1 -8 -5 2 -7 -6 -17 -16 -23 -11 -7 -29 -20 -40 -30 -11 -10 -26 -15 -34
-12 -7 2 -11 1 -8 -4 3 -5 -1 -14 -9 -21 -8 -7 -15 -9 -15 -5 0 4 -8 -2 -17
-12 -30 -34 -151 -114 -157 -104 -4 5 -1 12 4 14 6 3 5 4 -2 3 -7 -2 -12 -12
-11 -22 1 -16 -2 -15 -19 6 -47 59 -123 133 -273 265 -16 15 -23 23 -15 19 8
-4 11 -3 7 1 -4 5 -14 10 -22 11 -17 3 -96 62 -108 81 -4 7 -13 13 -20 13 -20
0 -97 57 -89 65 4 5 2 5 -4 2 -7 -4 -29 5 -50 20 -34 22 -310 166 -324 168
-24 3 -80 29 -80 36 0 6 5 7 12 3 7 -4 8 -3 4 5 -6 9 -11 9 -23 0 -11 -10 -16
-10 -22 0 -5 7 -11 12 -15 12 -3 0 -20 2 -37 6 -21 4 -28 10 -24 21 4 12 2 12
-8 3 -13 -10 -33 -7 -97 16 -17 6 -29 9 -77 19 -18 3 -30 10 -27 15 3 5 -1 6
-8 4 -8 -3 -45 1 -83 9 -39 8 -115 20 -170 27 -55 6 -103 15 -107 18 -15 13
-494 -6 -603 -25 -60 -10 -124 -18 -142 -18 -17 -1 -29 -4 -26 -8 7 -13 -22
-9 -36 5 -10 10 -12 9 -9 -2 3 -14 -156 -65 -180 -56 -7 3 -11 1 -8 -4 7 -11
-52 -33 -65 -25 -5 3 -9 0 -9 -6 0 -7 -6 -10 -14 -7 -8 3 -16 3 -18 -1 -2 -6
-132 -65 -148 -68 -12 -1 -212 -103 -226 -114 -8 -7 -17 -10 -21 -6 -3 3 -13
-3 -20 -14 -8 -11 -18 -18 -23 -15 -4 3 -10 -2 -14 -10 -3 -8 -10 -15 -16 -15
-6 0 -35 -18 -65 -40 -30 -22 -58 -40 -64 -40 -5 0 -11 -4 -13 -8 -1 -4 -25
-25 -52 -45 -41 -31 -52 -35 -65 -25 -14 11 -14 11 -3 -3 11 -14 7 -21 -25
-49 -84 -72 -281 -272 -333 -338 -46 -59 -57 -69 -70 -59 -13 10 -13 10 -2 -4
10 -14 10 -19 -1 -31 -8 -7 -19 -24 -26 -36 -7 -12 -16 -20 -21 -17 -6 4 -7
-1 -3 -11 5 -13 3 -15 -7 -9 -8 5 -11 4 -7 -2 4 -6 -2 -20 -13 -33 -10 -12
-21 -27 -23 -33 -3 -9 -9 -8 -23 3 -19 14 -19 14 0 -8 17 -20 15 -27 -6 -23
-4 0 -5 -5 -2 -12 2 -7 -6 -29 -18 -48 -13 -19 -33 -55 -46 -81 -17 -35 -27
-46 -40 -42 -10 4 -13 2 -7 -3 6 -4 10 -12 9 -18 -2 -21 -26 -70 -37 -77 -7
-4 -12 -13 -12 -20 -1 -22 -47 -138 -54 -134 -3 2 -7 -8 -7 -22 -1 -15 -7 -40
-14 -57 -7 -16 -14 -34 -15 -40 -14 -56 -57 -191 -64 -198 -5 -5 -7 -15 -5
-22 3 -6 -4 -65 -16 -131 -28 -163 -42 -372 -36 -534 3 -74 8 -144 10 -155 2
-11 7 -45 11 -75 3 -30 13 -92 21 -137 9 -46 12 -89 8 -95 -4 -7 -3 -9 1 -5
10 8 67 -192 59 -205 -3 -4 0 -8 7 -8 7 0 10 -3 7 -6 -4 -3 0 -17 8 -32 12
-24 12 -27 -1 -30 -8 -2 -15 -7 -15 -12 0 -5 7 -7 15 -4 11 4 21 -8 35 -41 11
-27 22 -56 23 -66 2 -9 9 -24 16 -33 8 -9 14 -27 14 -41 -1 -13 3 -23 7 -20 4
2 14 -11 22 -29 12 -24 13 -37 5 -52 -9 -16 -8 -17 5 -7 12 11 17 9 26 -11 8
-19 8 -26 -1 -30 -7 -2 -3 -5 8 -5 17 -1 17 -3 5 -11 -13 -8 -12 -10 3 -10 9
0 17 -6 17 -14 0 -7 6 -19 14 -25 8 -7 21 -26 30 -44 24 -46 34 -62 100 -152
33 -44 59 -86 59 -93 0 -6 2 -10 5 -8 2 3 27 -23 55 -57 82 -100 289 -303 382
-376 16 -12 30 -28 30 -33 0 -6 8 -12 18 -14 25 -3 48 -24 40 -37 -3 -6 -1 -7
5 -3 15 9 73 -24 65 -37 -3 -6 -1 -7 5 -3 6 4 20 -2 32 -14 11 -11 23 -20 28
-21 4 -1 6 -5 4 -11 -1 -5 2 -7 7 -3 15 8 122 -55 114 -67 -3 -6 -2 -8 4 -5
11 7 109 -37 137 -62 10 -9 20 -14 22 -12 3 1 18 -2 35 -9 25 -11 28 -15 17
-29 -12 -14 -11 -14 4 -3 15 12 29 9 102 -18 47 -18 84 -36 81 -40 -2 -4 7 -5
20 -2 14 2 25 0 25 -5 0 -5 8 -9 18 -10 9 -1 44 -8 77 -17 33 -9 74 -19 90
-22 17 -3 32 -10 33 -15 2 -5 7 -7 11 -4 5 2 59 -4 122 -15 177 -30 271 -38
439 -38 157 1 381 24 517 54 40 8 78 12 84 8 8 -4 9 -3 5 4 -4 8 0 12 12 12
10 0 44 9 75 19 32 11 57 17 57 14 0 -3 6 0 14 6 8 6 28 13 45 14 17 1 31 5
31 8 0 4 12 10 28 15 15 4 29 8 32 9 12 4 68 29 93 42 15 8 27 11 27 8 0 -4 7
1 16 10 9 9 22 14 30 11 7 -3 14 -1 16 3 4 10 119 71 135 71 7 0 13 3 13 8 0
4 14 15 31 24 18 11 27 13 24 5 -4 -6 0 -4 8 5 8 10 17 18 20 18 4 0 30 18 59
40 29 22 59 38 66 35 7 -2 15 2 18 10 4 8 11 12 17 8 5 -3 7 -1 4 4 -4 6 4 18
18 27 14 9 25 15 25 12 0 -2 15 10 33 27 52 51 130 112 139 110 4 -2 7 0 6 5
-1 4 44 54 101 111 56 57 118 123 138 147 19 24 40 41 46 37 6 -3 7 -1 3 5 -4
6 2 20 14 32 11 11 18 20 15 20 -3 0 11 20 30 45 19 25 42 59 52 75 12 22 23
29 39 26 22 -4 28 15 9 31 -4 4 -5 3 -1 -4 3 -6 2 -14 -4 -18 -18 -11 -11 15
13 50 13 19 27 32 31 27 4 -4 6 -2 5 3 -4 14 10 51 33 92 17 29 23 32 37 21
15 -12 15 -11 1 6 -12 15 -12 20 -2 23 6 3 10 9 7 13 -3 5 7 33 22 62 16 29
41 86 57 126 26 67 29 71 43 55 13 -16 13 -16 2 6 -9 18 -8 33 1 62 7 21 17
36 21 33 4 -2 6 7 3 22 -3 18 -1 23 7 18 7 -4 9 -3 6 3 -4 6 2 37 12 69 25 80
69 308 81 424 13 124 13 423 0 530 -21 179 -65 408 -84 439 -3 4 6 19 19 31
14 13 25 21 25 18 0 -3 14 7 31 23 17 16 37 29 45 29 8 0 14 3 14 8 0 4 17 18
38 32 20 13 53 38 74 53 26 21 42 27 60 22 17 -5 19 -4 8 4 -13 9 -12 12 5 25
11 9 23 16 27 16 4 0 19 11 34 25 14 13 30 22 35 19 5 -3 9 0 9 6 0 6 5 8 10
5 6 -4 9 -2 8 3 -4 15 153 123 166 115 6 -3 8 -3 4 2 -9 9 35 46 60 50 9 1 16
7 15 12 -2 13 135 105 147 98 6 -4 9 -1 8 7 -2 7 3 12 10 10 6 -1 11 3 10 9
-2 6 17 22 42 35 24 14 47 28 50 32 3 4 14 14 24 22 18 13 19 13 12 0 -4 -8 2
-3 14 12 12 16 26 28 32 28 6 0 24 12 42 26 17 14 48 38 70 54 l38 29 52 -61
c28 -33 50 -65 48 -70 -1 -5 2 -7 7 -4 5 4 23 -10 40 -31 25 -30 28 -40 18
-52 -10 -14 -10 -14 3 -4 13 10 23 6 54 -23 32 -29 36 -38 25 -46 -11 -8 -9
-8 5 -4 24 8 39 -13 23 -34 -11 -13 -10 -13 6 -1 16 13 21 12 40 -7 26 -25
102 -91 136 -118 73 -58 77 -63 61 -75 -13 -9 -13 -10 1 -6 9 3 23 0 30 -6 9
-8 9 -6 -1 7 -14 18 128 -80 166 -115 11 -10 23 -19 27 -19 3 0 57 -30 120
-67 62 -38 158 -90 212 -118 55 -27 102 -53 103 -57 2 -5 8 -8 14 -8 29 0 128
-47 128 -60 0 -10 3 -11 8 -4 5 8 17 6 42 -4 19 -9 42 -17 51 -18 9 -2 29 -9
45 -15 16 -7 35 -13 42 -15 8 -1 21 -6 30 -10 22 -10 21 -9 64 -18 20 -4 39
-14 42 -22 3 -7 12 -11 20 -8 9 3 66 -6 128 -21 62 -15 127 -29 143 -32 17 -3
32 -7 35 -10 6 -6 8 -1482 2 -1500 -5 -15 -97 -37 -113 -27 -8 4 -9 3 -5 -4 5
-8 -1 -12 -14 -12 -12 0 -29 -4 -39 -10 -10 -5 -29 -11 -42 -14 -13 -2 -60
-18 -104 -36 -44 -17 -87 -32 -97 -33 -10 -1 -18 -4 -18 -8 0 -4 -10 -11 -22
-14 -13 -4 -63 -27 -111 -51 -49 -24 -93 -41 -99 -38 -6 4 -8 2 -5 -3 9 -14
-17 -24 -40 -17 -15 5 -15 4 -3 -5 12 -9 12 -11 -2 -16 -10 -4 -22 -3 -29 1
-8 4 -9 3 -5 -4 5 -9 -61 -62 -78 -62 -3 0 -37 -25 -77 -54 -40 -30 -77 -52
-82 -49 -6 3 -7 1 -4 -4 5 -9 -34 -44 -52 -47 -2 -1 -19 -16 -38 -34 -19 -18
-39 -30 -44 -26 -5 3 -8 2 -7 -3 2 -4 -44 -55 -102 -113 -58 -58 -120 -124
-138 -148 -19 -23 -39 -39 -44 -36 -6 4 -8 2 -5 -3 9 -14 -63 -104 -76 -96 -6
3 -7 1 -3 -5 4 -7 2 -12 -3 -12 -6 0 -10 -4 -8 -10 1 -5 -9 -20 -23 -32 -14
-13 -19 -18 -11 -13 12 9 12 7 2 -13 -7 -12 -16 -20 -22 -17 -5 4 -9 3 -8 -2
3 -20 -15 -53 -29 -53 -8 0 -13 -3 -9 -6 5 -5 -79 -173 -93 -184 -3 -3 -12
-20 -19 -37 -8 -18 -17 -33 -22 -33 -5 0 -8 -3 -7 -7 6 -16 -47 -133 -59 -133
-7 0 -13 -5 -13 -11 0 -5 4 -7 10 -4 5 3 1 -15 -10 -40 -11 -26 -20 -50 -20
-55 0 -5 -5 -21 -12 -37 -6 -15 -12 -35 -14 -44 -9 -42 -25 -71 -38 -66 -10 4
-12 0 -8 -15 4 -15 7 -17 14 -6 7 9 8 8 4 -5 -3 -10 -6 -23 -6 -28 0 -6 -4 -7
-10 -4 -6 3 -7 -1 -4 -10 4 -8 1 -21 -5 -29 -6 -7 -8 -15 -5 -19 3 -3 -1 -36
-10 -74 -22 -100 -46 -291 -53 -428 -4 -99 8 -362 21 -432 18 -98 27 -164 22
-172 -3 -5 -2 -11 4 -13 5 -1 11 -16 14 -33 2 -16 6 -37 9 -45 16 -40 38 -144
33 -157 -3 -8 -2 -12 3 -9 11 7 65 -140 57 -153 -4 -5 -2 -13 4 -16 16 -10 60
-106 54 -116 -3 -5 -1 -9 4 -9 5 0 14 -11 20 -25 15 -32 15 -38 0 -29 -7 5 -8
3 -4 -5 5 -7 10 -10 13 -7 9 8 124 -204 117 -215 -3 -5 0 -8 8 -7 7 2 12 -5
12 -14 -1 -10 2 -16 6 -15 9 2 90 -108 90 -122 0 -4 13 -20 30 -36 23 -22 27
-31 18 -42 -8 -10 -8 -12 4 -8 8 3 23 -3 33 -15 10 -11 16 -20 14 -20 -3 0 19
-25 48 -56 29 -31 53 -62 53 -71 0 -8 4 -12 9 -9 4 3 19 -7 33 -22 30 -33 162
-153 200 -182 15 -12 27 -27 25 -33 -1 -7 4 -11 12 -9 18 4 42 -18 34 -31 -4
-6 0 -8 10 -4 17 6 41 -15 29 -27 -4 -4 -2 -7 3 -5 18 4 45 -13 38 -24 -3 -6
-1 -7 6 -3 11 7 68 -27 83 -49 4 -5 11 -10 15 -10 18 -1 71 -39 66 -48 -3 -6
-1 -7 4 -4 6 4 23 -3 39 -16 16 -12 31 -21 34 -21 14 4 50 -17 45 -26 -3 -5 0
-7 8 -4 8 3 21 -2 30 -10 8 -8 17 -12 21 -9 3 3 15 -2 27 -13 12 -10 23 -18
25 -16 3 1 19 -4 37 -12 56 -26 184 -76 190 -75 1 0 16 -5 32 -11 46 -19 224
-69 270 -77 16 -3 35 -12 43 -21 7 -10 10 -11 6 -3 -6 11 0 13 32 8 21 -4 50
-9 64 -11 25 -4 99 -14 155 -21 178 -22 464 -11 683 26 67 11 127 17 134 13 6
-4 8 -3 5 4 -7 11 62 28 96 24 9 -1 17 3 17 9 0 6 7 9 15 5 8 -3 15 -2 15 3 0
11 88 36 97 28 3 -4 11 1 18 10 6 8 26 16 42 17 17 0 29 4 27 7 -2 4 3 10 12
13 10 4 13 2 8 -7 -4 -6 2 -4 14 6 11 11 26 16 31 12 6 -3 11 -2 11 3 0 13 50
33 63 26 7 -4 9 -3 4 1 -10 12 49 36 71 29 14 -5 15 -4 2 5 -13 9 -13 11 0 12
8 1 18 1 23 0 4 0 7 4 7 9 0 6 4 10 10 10 5 0 48 23 94 51 49 29 90 48 97 43
7 -4 9 -3 6 3 -8 13 100 86 114 78 5 -4 8 -2 7 3 -4 13 120 112 135 108 7 -1
8 -1 4 2 -9 5 11 32 24 32 5 0 52 42 105 92 53 51 102 92 108 90 6 -2 8 -1 4
3 -4 4 18 37 49 74 53 62 86 92 68 60 -5 -8 -4 -11 0 -6 5 4 9 15 10 25 2 23
95 143 106 136 5 -3 6 2 3 10 -3 9 -1 16 5 16 6 0 10 3 9 8 -3 11 84 142 94
142 5 0 7 4 4 9 -3 5 5 24 18 44 13 19 27 44 31 56 3 12 11 18 17 15 6 -4 8
-2 5 3 -4 6 13 53 38 106 25 52 45 99 45 104 0 6 7 16 15 23 8 7 12 17 9 22
-4 6 -1 14 6 18 7 4 14 23 16 41 5 48 49 164 61 162 5 -1 10 4 10 12 0 8 -5
11 -10 8 -6 -4 -7 5 -3 22 4 15 10 40 13 56 3 16 10 26 16 22 6 -3 7 -1 3 5
-7 12 30 275 43 302 8 18 6 470 -2 520 -7 37 -29 191 -32 225 -1 11 -6 28 -10
38 -4 10 -5 21 -1 24 3 3 0 13 -7 21 -10 12 -9 16 1 20 10 3 10 6 -1 16 -8 6
-24 46 -35 88 -12 42 -25 84 -29 94 -5 13 -3 15 8 10 8 -4 6 -1 -3 6 -9 8 -19
26 -22 40 -2 15 -9 35 -14 45 -6 10 -11 21 -11 25 -2 9 -38 94 -52 123 -6 12
-11 28 -13 37 -1 9 -8 23 -15 32 -7 9 -10 16 -5 16 5 0 4 4 -2 8 -14 9 -76
122 -67 122 4 0 -4 11 -16 24 -14 15 -20 30 -16 37 5 7 4 10 -3 6 -6 -4 -19
12 -32 38 -12 25 -25 45 -28 45 -13 0 -64 89 -57 100 4 6 1 9 -7 8 -7 -2 -12
3 -10 10 1 8 -2 11 -7 7 -6 -3 -15 4 -21 15 -6 12 -20 30 -31 41 -11 11 -17
25 -13 31 4 6 3 8 -3 5 -5 -4 -20 5 -31 18 -12 14 -19 25 -15 25 3 0 -5 9 -18
21 -13 12 -23 26 -21 31 1 5 -2 7 -7 4 -5 -4 -31 21 -58 53 -26 33 -52 60 -56
60 -17 2 -116 104 -110 114 3 6 2 7 -4 4 -5 -4 -29 8 -52 24 -36 27 -40 34
-29 48 10 13 10 14 -2 4 -10 -10 -19 -8 -42 8 -15 11 -26 25 -22 30 3 5 2 9
-3 8 -18 -4 -106 49 -125 76 -4 5 -11 10 -15 10 -18 1 -71 39 -66 48 3 6 1 7
-5 3 -5 -3 -24 5 -40 19 -16 13 -32 22 -35 19 -9 -9 -88 42 -80 51 5 4 3 5 -4
2 -15 -9 -45 2 -37 14 3 5 -1 6 -9 3 -8 -3 -20 2 -27 10 -7 9 -17 13 -23 9 -7
-4 -8 0 -3 12 5 14 3 15 -6 7 -15 -11 -149 37 -182 66 -11 9 -16 12 -13 5 5
-7 0 -9 -13 -6 -11 3 -18 9 -15 13 3 5 -3 7 -12 6 -15 -3 -100 21 -153 42 -8
3 -31 7 -49 9 -19 2 -37 6 -40 9 -3 3 -6 343 -6 755 0 565 3 753 12 761 6 5
34 10 62 11 28 1 51 5 51 9 0 3 19 9 43 13 71 12 104 20 140 34 22 9 26 8 20
-2 -4 -6 5 -4 20 6 15 10 32 15 37 12 6 -3 10 -2 10 2 0 5 21 15 48 23 26 7
49 14 52 15 11 4 47 18 80 30 32 13 77 28 90 30 3 0 20 9 38 18 18 10 38 15
44 11 7 -5 8 -3 3 6 -6 10 -1 11 21 6 21 -5 25 -4 14 4 -10 6 -11 10 -3 10 7
0 45 16 84 35 39 19 76 32 82 28 6 -3 7 -1 3 5 -6 11 6 16 27 13 4 0 7 3 7 9
0 14 60 42 76 36 8 -3 13 -2 10 3 -8 13 21 34 35 25 7 -4 9 -3 6 3 -4 6 17 23
46 38 62 34 159 101 243 167 62 48 81 58 68 36 -4 -8 -3 -10 2 -5 5 5 9 13 9
19 0 6 9 16 19 22 11 6 29 21 40 32 12 12 39 33 60 48 21 14 35 26 30 26 -5 0
3 8 16 17 14 10 29 16 35 15 5 -2 7 0 2 4 -10 10 43 65 56 57 6 -3 7 -2 4 4
-7 11 66 86 76 78 4 -3 5 -2 2 2 -7 9 16 34 26 27 5 -3 8 0 7 7 -2 7 3 14 10
15 6 1 15 3 20 4 4 1 11 2 15 1 5 -1 6 3 2 9 -3 6 -12 7 -18 3 -7 -4 8 17 33
46 25 29 51 61 59 72 15 21 31 25 31 8 0 -5 -4 -8 -9 -5 -10 6 -25 -24 -16
-32 3 -3 5 0 5 6 0 7 7 12 15 12 8 0 15 5 15 12 0 6 8 3 20 -7 11 -10 17 -22
13 -28 -3 -6 -1 -7 5 -3 6 4 35 -9 64 -29 29 -19 49 -35 44 -35 -5 0 11 -11
35 -24 24 -13 43 -28 42 -33 -1 -5 4 -10 11 -10 17 0 146 -92 153 -109 3 -8 9
-11 14 -8 5 3 9 0 9 -6 0 -6 5 -8 10 -5 6 3 13 -1 16 -9 3 -9 10 -14 14 -11 5
3 12 -1 17 -9 4 -8 12 -15 16 -15 16 0 86 -58 79 -65 -4 -4 -2 -7 3 -6 19 4
31 0 51 -18 10 -10 36 -28 57 -41 23 -14 36 -29 33 -37 -3 -7 0 -16 6 -20 7
-4 8 -3 4 4 -13 22 21 12 48 -13 14 -13 26 -21 26 -18 0 3 7 0 15 -7 8 -7 12
-17 8 -23 -3 -6 -1 -7 5 -3 11 6 82 -38 90 -56 2 -5 9 -8 15 -8 11 0 53 -32
101 -77 11 -10 16 -12 11 -4 -5 9 2 7 17 -5 14 -10 23 -23 20 -28 -3 -5 0 -6
5 -3 6 4 24 -3 39 -15 16 -12 30 -22 31 -22 1 -1 -9 -41 -21 -89 -13 -48 -26
-84 -30 -80 -4 4 -5 1 -2 -7 3 -8 -5 -80 -18 -160 -20 -125 -23 -177 -22 -377
1 -152 -2 -229 -9 -225 -5 3 -5 -1 1 -9 6 -8 17 -57 23 -109 7 -52 21 -135 32
-185 23 -106 22 -98 7 -90 -7 4 -5 0 5 -8 17 -15 24 -33 8 -23 -5 3 -11 -1
-14 -9 -4 -9 -1 -12 8 -8 16 5 30 -21 38 -73 3 -16 10 -41 15 -55 6 -15 8 -30
5 -33 -4 -3 -2 -6 4 -6 9 0 39 -77 35 -92 -1 -5 2 -8 7 -8 9 0 27 -57 23 -73
-2 -5 2 -6 8 -2 5 3 10 1 10 -5 0 -7 16 -44 35 -83 19 -39 33 -72 31 -75 -2
-2 5 -13 16 -24 11 -11 17 -26 14 -34 -3 -8 -2 -13 3 -10 11 7 42 -55 34 -69
-4 -5 -3 -7 2 -3 14 13 35 -25 23 -40 -8 -9 -7 -11 3 -7 9 3 27 -14 49 -47 19
-28 63 -89 97 -134 41 -54 58 -85 51 -92 -6 -6 -6 -12 3 -17 8 -5 10 -4 5 3
-11 19 9 14 27 -6 10 -10 14 -22 10 -25 -3 -4 0 -7 7 -7 14 0 70 -48 70 -61 0
-11 89 -96 95 -91 3 3 5 -2 5 -12 0 -9 4 -15 9 -12 5 4 11 3 13 -1 4 -10 167
-153 196 -173 16 -10 18 -16 9 -23 -8 -5 -5 -6 9 -3 13 4 28 -1 42 -14 11 -11
24 -20 27 -20 3 0 39 -22 79 -50 40 -27 78 -50 84 -50 6 0 14 -5 18 -12 5 -7
3 -8 -6 -3 -9 5 -11 4 -6 -4 4 -6 12 -9 17 -5 5 3 26 -5 46 -17 38 -23 99 -54
170 -84 37 -15 41 -20 31 -34 -10 -13 -10 -14 2 -3 18 15 44 16 34 0 -4 -6 -3
-8 4 -4 14 9 155 -48 145 -59 -4 -4 -2 -5 5 -1 7 4 29 2 50 -5 20 -7 40 -12
45 -11 4 1 7 -3 7 -9 0 -5 4 -8 8 -5 13 8 135 -26 156 -43 14 -11 17 -12 11
-2 -6 11 -3 13 16 8 13 -4 42 -10 64 -13 22 -3 47 -8 55 -11 8 -3 29 -6 45 -8
268 -24 336 -27 455 -21 74 4 160 10 190 13 30 4 73 7 95 8 22 0 42 3 45 6 9
11 149 36 143 25 -4 -5 4 -2 18 7 13 9 33 17 44 17 11 0 46 9 79 20 32 11 62
17 67 14 5 -3 9 -1 9 4 0 9 137 58 158 56 6 -1 12 2 12 6 0 13 58 33 71 24 7
-4 10 -3 6 3 -4 6 0 13 8 17 8 3 15 1 15 -4 0 -6 4 -10 10 -10 5 0 7 6 4 13
-7 20 77 58 102 45 15 -9 17 -8 7 2 -10 11 -2 20 45 46 41 22 61 29 70 21 9
-7 11 -6 6 7 -4 10 0 18 12 23 11 4 37 20 58 35 22 16 46 26 53 23 8 -2 12 -1
9 4 -6 9 43 47 79 61 14 5 25 14 25 19 0 11 67 62 85 65 8 1 18 6 22 11 5 4 1
5 -7 0 -8 -5 12 16 44 46 33 30 63 53 68 52 4 -2 7 1 5 6 -4 14 93 102 105 95
7 -4 8 -3 4 5 -4 6 -2 18 4 27 10 12 16 12 29 2 14 -11 14 -11 4 3 -11 13 -7
23 24 60 21 24 44 48 51 52 7 5 17 20 23 33 5 15 14 22 21 18 7 -5 8 -3 3 6
-6 10 -4 12 10 6 15 -5 16 -4 6 8 -8 9 -9 16 -2 21 6 3 27 31 47 61 27 40 41
53 53 49 12 -5 13 -3 5 5 -9 9 -4 24 18 61 17 27 35 46 41 42 6 -3 7 -1 3 5
-9 15 34 93 47 85 6 -3 7 -1 3 5 -9 14 14 63 27 55 6 -3 7 -1 3 5 -4 7 4 33
17 60 37 71 67 142 94 222 8 25 20 56 26 70 5 14 11 30 13 35 21 76 43 168 48
198 5 25 12 37 24 38 10 0 12 3 5 6 -7 2 -13 16 -13 29 0 14 3 23 8 21 4 -3 7
11 7 31 1 21 7 80 14 132 16 122 22 411 10 520 -14 136 -16 152 -28 215 -19
111 -34 177 -55 248 -10 32 -15 65 -12 73 3 8 2 13 -3 10 -10 -7 -33 52 -26
64 3 5 2 10 -3 12 -7 3 -69 155 -75 183 -1 6 -5 12 -8 15 -3 3 -13 19 -21 37
-12 23 -13 33 -4 37 8 3 7 5 -1 5 -15 1 -55 76 -46 85 4 3 1 6 -5 6 -16 0 -75
108 -66 121 4 7 3 9 -4 5 -6 -4 -22 13 -39 41 -15 27 -36 57 -45 68 -10 10
-16 25 -14 32 3 7 0 15 -6 19 -7 5 -8 2 -4 -7 10 -20 -18 14 -94 111 -36 46
-64 87 -63 92 2 4 -1 7 -6 5 -5 -1 -59 49 -120 110 -62 62 -114 113 -117 113
-9 0 -143 118 -138 122 2 3 -2 5 -8 5 -11 0 -160 95 -178 113 -3 3 -23 15 -45
27 -24 13 -39 29 -38 39 1 11 -2 13 -9 6 -12 -12 -61 6 -52 19 3 5 -1 6 -9 3
-8 -3 -22 3 -32 13 -10 10 -23 18 -29 18 -24 0 -145 61 -146 73 0 6 -5 12 -11
12 -5 0 -8 -4 -5 -9 3 -4 -14 -1 -38 7 -25 9 -42 21 -39 26 4 5 1 6 -6 1 -11
-6 -40 2 -121 32 -8 3 -19 7 -25 8 -5 2 -30 9 -55 16 -60 17 -57 16 -81 18
-11 0 -17 5 -14 11 3 5 0 7 -9 4 -8 -3 -48 2 -88 11 -40 9 -83 17 -95 18 -13
0 -23 4 -23 7 0 3 -16 4 -36 2 -23 -3 -34 -1 -31 5 4 7 -101 9 -296 8 -299 -1
-319 -3 -512 -42 -16 -3 -39 -7 -50 -8 -11 -1 -27 -5 -35 -8 -59 -21 -210 -60
-233 -60 -21 0 -25 -2 -15 -9 9 -7 7 -8 -10 -5 -12 3 -20 2 -18 -2 3 -4 -12
-13 -32 -20 -20 -7 -70 -28 -110 -47 -41 -19 -79 -31 -89 -27 -10 4 -14 2 -9
-5 7 -12 -29 -27 -44 -17 -5 3 -7 0 -4 -8 3 -10 -4 -17 -23 -22 -15 -5 -32 -7
-36 -6 -5 1 -6 -2 -3 -7 6 -11 -42 -35 -54 -27 -5 3 -12 0 -16 -6 -5 -8 -2
-10 7 -5 8 4 3 -1 -10 -12 -13 -11 -47 -31 -76 -46 -28 -14 -60 -35 -70 -46
-10 -11 -22 -20 -27 -20 -5 0 -21 -11 -36 -25 -15 -14 -33 -23 -39 -20 -7 2
-12 0 -10 -5 3 -14 -115 -110 -127 -103 -6 3 -8 3 -4 -2 5 -4 -15 -29 -44 -54
-52 -47 -118 -114 -160 -164 l-23 -28 -45 32 c-115 82 -111 78 -100 102 11 21
10 21 -4 3 -18 -22 6 -36 -305 184 -27 19 -47 39 -44 44 4 5 2 6 -4 3 -10 -6
-101 54 -115 76 -4 6 -8 8 -8 4 0 -11 -90 54 -90 65 0 4 -5 8 -11 8 -18 0 -99
62 -93 72 3 5 2 8 -3 7 -20 -4 -27 2 -13 12 13 9 12 10 -2 5 -24 -7 -50 3 -41
17 4 6 1 7 -7 2 -7 -4 -15 -4 -19 1 -3 5 -25 22 -48 38 -24 16 -40 33 -36 39
3 5 1 7 -5 3 -5 -3 -30 9 -54 27 -23 18 -59 43 -79 55 l-37 22 26 78 c15 42
29 79 32 82 3 3 6 12 6 20 3 33 41 160 46 155 3 -3 3 6 1 20 -3 14 -1 25 3 25
5 0 9 12 10 28 0 15 10 81 22 147 12 66 27 170 33 230 20 179 16 611 -6 720
-2 11 -7 40 -10 65 -8 65 -43 259 -55 300 -13 45 -13 53 3 45 6 -4 5 -1 -4 7
-8 7 -26 51 -38 98 -13 47 -34 114 -47 149 -25 67 -21 94 15 89 8 -2 16 2 16
9 0 15 112 96 124 89 5 -3 11 4 14 16 4 12 9 19 12 16 4 -4 15 2 25 12 11 11
29 17 44 16 20 -3 24 0 16 9 -8 9 -8 15 0 20 5 3 10 3 10 -1 0 -5 15 6 33 22
35 34 173 134 183 134 3 0 20 11 36 26 17 14 37 23 44 20 7 -3 11 0 8 7 -5 15
50 50 61 39 5 -4 5 -2 2 4 -8 14 99 87 114 79 5 -4 8 -2 7 3 -3 11 85 82 101
82 6 0 11 5 11 11 0 7 10 9 28 5 20 -5 23 -4 12 3 -13 9 -12 12 5 25 11 9 25
14 32 11 7 -2 15 5 18 16 4 11 9 18 12 16 2 -3 16 6 30 19 15 14 33 22 40 19
8 -2 11 -1 8 4 -3 6 14 23 39 40 l43 30 41 -43 c23 -24 38 -47 34 -51 -4 -5
-2 -5 4 -2 15 8 38 -18 29 -33 -4 -6 -2 -9 3 -8 13 4 102 -74 96 -84 -3 -5 -1
-7 4 -6 5 2 24 -7 41 -20 25 -18 29 -26 22 -40 -6 -11 -6 -24 -1 -32 8 -13 11
-13 22 -1 8 9 9 11 1 7 -15 -8 -24 6 -14 22 5 9 25 -2 67 -34 32 -26 58 -50
56 -55 -1 -5 5 -9 13 -9 21 0 90 -50 87 -63 -2 -7 0 -9 4 -5 8 9 104 -41 104
-55 0 -5 -8 -6 -17 -2 -15 5 -16 4 -5 -6 9 -10 15 -10 23 -2 8 8 24 3 61 -18
27 -16 53 -29 58 -29 6 0 10 -4 10 -8 0 -4 16 -14 35 -21 21 -7 33 -17 29 -23
-5 -7 -1 -9 10 -5 18 7 86 -21 86 -35 0 -5 4 -7 9 -4 5 3 42 -7 82 -24 93 -36
109 -42 134 -47 11 -2 26 -11 33 -20 7 -10 12 -12 12 -5 0 9 5 10 18 4 21 -11
230 -57 327 -71 112 -17 283 -31 385 -31 177 0 470 36 601 75 40 11 47 11 57
-4 10 -14 11 -14 5 3 -5 16 -3 18 11 13 10 -4 15 -3 11 3 -3 6 1 10 11 10 9 0
48 11 86 25 38 14 74 23 79 19 5 -3 9 0 9 6 0 6 4 9 9 6 5 -4 11 -1 13 5 2 7
18 12 35 13 17 0 29 4 27 7 -6 10 76 40 88 33 7 -5 8 -2 3 6 -6 10 -4 12 9 7
9 -4 15 -3 12 2 -3 5 9 15 27 22 17 7 63 30 101 51 37 21 73 35 80 31 6 -3 8
-2 3 2 -4 5 31 31 77 60 46 28 105 68 130 89 41 33 77 42 60 14 -4 -7 -2 -8 5
-4 8 5 9 12 2 20 -8 9 3 23 41 52 29 21 56 38 61 36 5 -1 6 2 3 7 -4 5 6 19
21 31 48 36 213 203 251 253 20 26 42 45 49 43 7 -3 10 1 7 8 -6 16 34 68 47
61 5 -4 7 0 4 7 -3 7 5 24 18 38 13 14 26 30 28 35 12 29 72 115 80 115 5 0 8
6 7 13 -2 6 3 11 10 9 8 -1 11 2 8 7 -8 13 4 42 15 35 5 -3 6 1 3 9 -3 8 -1
18 5 21 6 4 22 34 37 66 15 33 31 60 37 60 6 0 8 3 5 6 -4 3 9 38 27 79 29 62
45 103 90 220 5 11 9 26 11 33 1 8 6 21 10 30 4 9 8 23 10 31 13 65 27 110 33
107 4 -3 5 9 3 26 -3 20 -1 29 6 24 7 -4 10 1 7 12 -2 10 3 52 11 93 30 162
42 316 39 494 -4 204 -22 356 -65 548 -35 152 -31 138 -68 244 -20 55 -26 84
-18 87 6 2 4 5 -4 5 -14 1 -57 95 -52 114 1 4 -2 7 -7 7 -12 0 -53 99 -46 111
4 5 1 8 -7 7 -8 -2 -13 6 -12 19 0 13 -2 21 -5 18 -7 -8 -63 84 -56 94 3 5 -1
11 -8 14 -8 3 -33 37 -57 77 -24 39 -65 99 -92 132 -27 34 -47 67 -44 75 3 7
0 12 -7 10 -7 -1 -11 4 -9 11 1 6 -4 11 -10 10 -7 -2 -12 3 -10 10 1 8 -2 11
-7 8 -9 -6 -47 44 -43 57 1 5 -1 6 -6 3 -11 -6 -64 47 -57 57 3 4 2 5 -1 3 -9
-7 -33 17 -27 27 2 4 1 7 -4 7 -4 0 -32 22 -62 49 -40 36 -52 54 -47 66 5 14
4 15 -7 7 -9 -8 -26 1 -70 40 -31 27 -55 53 -52 58 3 4 -4 6 -14 3 -13 -3 -24
2 -33 16 -7 12 -18 21 -24 21 -6 0 -19 9 -29 20 -10 11 -22 20 -27 20 -10 0
-110 69 -119 82 -3 6 -9 9 -13 8 -4 -2 -30 10 -57 25 -36 19 -47 30 -40 39 7
8 5 12 -9 12 -10 0 -16 -4 -13 -9 2 -4 -29 9 -70 30 -41 21 -73 42 -70 47 4 5
1 6 -4 3 -16 -10 -74 13 -66 26 4 6 1 7 -6 3 -13 -9 -106 27 -133 51 -9 8 -21
12 -27 9 -14 -9 -62 4 -55 15 3 5 -2 6 -10 3 -9 -3 -16 -2 -16 4 0 6 -8 9 -17
8 -10 -2 -56 7 -103 19 -108 28 -135 34 -190 41 -25 3 -52 7 -60 10 -33 12
-175 19 -370 19 -208 0 -311 -6 -410 -25 -30 -5 -65 -8 -78 -5 -13 2 -20 0
-17 -6 4 -5 -4 -9 -17 -9 -13 0 -54 -9 -92 -20 -38 -11 -73 -17 -77 -14 -5 3
-9 0 -9 -7 0 -7 -10 -9 -25 -7 -13 3 -22 1 -19 -3 5 -8 -19 -13 -53 -12 -7 1
-11 -3 -8 -7 8 -13 -32 -19 -45 -6 -9 8 -11 8 -8 -3 3 -12 -18 -23 -145 -72
-16 -7 -68 -31 -115 -54 -48 -23 -90 -42 -95 -43 -4 -1 -17 -9 -30 -17 -12 -9
-69 -46 -127 -83 -58 -37 -114 -75 -124 -84 -22 -20 -36 -23 -36 -7 0 5 -5 7
-11 3 -8 -5 -8 -8 0 -13 7 -5 -14 -28 -53 -58 -35 -28 -104 -90 -154 -138 -49
-47 -92 -82 -94 -78 -3 5 -3 3 -2 -4 2 -7 -10 -23 -26 -37 -17 -14 -30 -30
-30 -37 0 -7 -8 -9 -21 -6 -15 4 -18 2 -10 -7 17 -20 -20 -50 -39 -33 -12 10
-12 9 -2 -4 9 -13 6 -23 -19 -57 -17 -23 -35 -42 -40 -42 -5 0 -9 -6 -9 -14 0
-8 -11 -24 -26 -35 -14 -11 -25 -22 -25 -25 2 -21 0 -26 -9 -21 -6 4 -10 3 -9
-2 4 -22 -2 -35 -15 -30 -10 4 -13 1 -10 -7 6 -15 -50 -108 -60 -101 -3 3 -4
2 -1 -2 4 -5 -23 -58 -41 -82 -2 -2 -12 2 -21 10 -16 12 -17 12 -6 -2 10 -12
10 -18 0 -29 -9 -11 -8 -11 7 0 14 11 11 -1 -14 -50 -18 -36 -38 -68 -45 -72
-7 -5 -11 -16 -8 -26 2 -11 -3 -26 -12 -35 -8 -9 -15 -18 -14 -19 6 -8 -24
-78 -32 -78 -6 0 -8 -4 -5 -9 6 -9 -38 -144 -45 -137 -2 2 -5 -12 -6 -32 -1
-20 -7 -38 -13 -40 -5 -2 -8 -7 -6 -11 3 -4 -4 -41 -14 -82 -11 -41 -24 -99
-30 -129 -5 -30 -12 -64 -14 -75 -2 -11 -7 -51 -11 -90 -4 -38 -9 -73 -12 -78
-11 -19 -1 -441 13 -547 9 -63 17 -126 19 -140 1 -14 6 -33 10 -43 4 -9 5 -27
2 -38 -3 -12 -3 -18 1 -14 11 11 50 -159 39 -172 -5 -7 -14 -10 -20 -6 -5 3
-7 1 -3 -5 6 -10 -74 -72 -93 -72 -5 0 -12 -7 -15 -16 -4 -9 -13 -14 -22 -10
-8 3 -13 2 -9 -3 3 -5 -8 -19 -25 -31 -16 -12 -30 -19 -30 -16 0 3 -9 -3 -20
-14 -12 -12 -26 -18 -32 -14 -6 4 -8 3 -5 -3 5 -8 -24 -31 -122 -95 -31 -21
-45 -23 -35 -5 6 9 5 9 -8 0 -8 -7 -17 -10 -20 -8 -3 3 -5 -3 -4 -14 1 -22
-91 -94 -107 -84 -6 3 -7 1 -4 -4 9 -14 -17 -24 -40 -17 -15 5 -16 4 -3 -5 13
-9 12 -12 -5 -25 -11 -9 -25 -16 -32 -16 -6 0 -13 -4 -15 -8 -5 -13 -104 -82
-117 -82 -6 0 -11 -3 -11 -7 0 -5 -24 -24 -53 -43 -28 -19 -54 -37 -57 -41
-12 -12 -77 -59 -84 -59 -4 0 -4 6 0 13 5 8 2 8 -9 -2 -20 -16 -22 -25 -4 -15
6 3 -1 -5 -18 -20 -16 -14 -36 -23 -43 -21 -7 3 -11 1 -8 -4 3 -5 -17 -23 -44
-41 -49 -31 -51 -32 -70 -15 -11 10 -20 24 -20 30 0 7 -7 16 -16 19 -9 4 -14
13 -10 22 3 8 2 13 -3 10 -12 -8 -54 41 -47 53 4 6 1 9 -7 5 -9 -3 -24 6 -36
22 -17 22 -19 30 -9 43 11 14 11 14 -3 3 -22 -17 -45 7 -26 28 10 12 9 12 -6
0 -16 -11 -22 -9 -50 20 -17 18 -71 66 -119 108 -48 41 -85 79 -82 84 3 4 -4
8 -14 8 -23 0 -45 23 -34 35 4 5 2 5 -4 2 -6 -4 -20 1 -30 9 -10 9 -13 12 -5
8 9 -5 12 -3 7 5 -4 6 -11 9 -15 6 -12 -7 -82 51 -73 59 4 4 2 6 -3 5 -14 -4
-67 25 -89 50 -11 12 -25 21 -33 21 -7 0 -13 4 -13 9 0 5 -10 11 -23 15 -12 3
-31 13 -42 23 -11 10 -33 24 -48 31 -16 7 -31 22 -34 33 -4 14 -8 17 -13 8 -8
-12 -16 -8 -120 52 -14 8 -27 16 -30 19 -3 3 -10 6 -15 7 -6 1 -50 20 -97 42
-48 23 -91 41 -97 41 -5 0 -17 8 -26 17 -10 9 -27 18 -39 19 -34 4 -128 39
-121 46 4 3 0 5 -7 5 -24 -3 -118 25 -118 35 0 5 -4 6 -10 3 -5 -3 -20 -1 -32
6 -12 7 -37 13 -55 15 -18 2 -41 8 -52 13 -11 6 -29 11 -40 11 -11 0 -32 5
-48 11 -15 6 -47 13 -71 15 -24 2 -47 6 -53 9 -15 10 -12 1420 4 1432 16 13
99 33 109 27 4 -3 8 0 8 7 0 7 7 4 15 -7 15 -18 15 -18 8 0 -4 13 -3 17 4 13
6 -4 13 -3 15 3 1 5 12 11 23 13 11 2 27 7 35 10 8 4 42 16 75 27 33 12 67 24
75 27 8 4 21 5 28 4 6 -1 12 2 12 7 0 8 52 35 70 37 3 1 33 16 68 33 34 18 68
30 74 26 7 -4 8 -3 4 4 -4 7 7 19 31 29 21 10 40 20 43 23 3 3 17 13 32 22 20
13 28 14 31 5 4 -8 6 -7 6 3 1 17 77 67 94 62 7 -2 9 0 4 4 -4 4 12 21 36 38
71 51 201 159 221 184 10 13 20 21 23 18 3 -2 43 37 90 87 47 51 89 91 94 90
5 -2 8 3 6 10 -1 6 4 11 11 9 8 -1 11 2 8 7 -4 5 25 49 64 97 38 48 70 92 70
97 0 5 7 6 16 3 8 -3 12 -2 9 4 -7 11 25 70 37 70 4 0 8 6 8 13 0 20 56 98 65
90 4 -5 5 -3 2 3 -4 6 0 26 9 43 12 23 21 31 33 26 12 -5 13 -3 4 6 -9 9 -4
26 20 75 26 54 33 61 46 51 14 -10 14 -10 3 5 -11 14 -9 27 17 85 16 37 35 68
42 68 7 0 14 7 16 15 4 12 3 12 -5 1 -6 -8 -12 -10 -16 -3 -4 6 0 17 7 24 8 7
12 20 9 30 -3 12 2 18 14 19 11 0 14 3 7 5 -8 4 -8 14 3 40 8 18 15 37 17 41
1 5 6 7 12 5 5 -2 5 2 -2 8 -8 9 -8 22 2 54 35 113 73 323 82 457 3 54 9 97
12 95 6 -4 -3 260 -13 372 -8 91 -35 257 -53 327 -8 33 -17 69 -19 81 -2 12
-11 40 -19 63 -8 23 -14 45 -13 49 1 4 -4 20 -10 35 -7 16 -10 33 -6 38 3 5 1
9 -4 9 -17 0 -33 61 -21 77 9 11 9 12 -4 8 -13 -6 -27 13 -32 45 0 3 -6 15
-13 28 -7 12 -10 28 -6 34 4 6 3 8 -4 4 -6 -3 -15 9 -23 31 -6 21 -20 50 -30
65 -11 14 -19 33 -19 42 0 9 -4 16 -9 16 -5 0 -13 10 -17 22 -4 12 -22 46 -41
75 -19 28 -32 56 -29 62 4 5 1 13 -5 17 -8 4 -9 3 -5 -4 4 -7 5 -12 2 -12 -8
0 -41 63 -38 73 1 4 -2 7 -7 7 -5 0 -27 25 -50 55 -23 30 -40 55 -37 55 2 0
-11 17 -30 37 -28 30 -32 39 -21 52 10 14 10 14 -4 3 -14 -10 -20 -7 -41 21
-14 18 -74 81 -134 141 -60 60 -108 114 -106 120 2 6 0 8 -3 4 -4 -4 -23 5
-41 19 -29 22 -32 28 -22 42 11 14 11 14 -4 3 -13 -11 -20 -9 -41 10 -13 13
-27 30 -30 38 -3 9 -6 10 -6 2 -1 -7 -18 0 -43 19 -24 17 -42 34 -41 38 1 4
-4 8 -11 8 -7 0 -34 15 -61 34 -63 44 -119 78 -232 136 -50 26 -90 50 -87 54
2 4 -1 11 -7 15 -8 4 -9 3 -5 -4 4 -7 2 -12 -3 -12 -6 0 -11 4 -11 10 0 5 -6
7 -14 4 -7 -3 -20 1 -27 9 -8 7 -18 14 -24 15 -33 6 -75 25 -75 33 0 6 -4 8
-9 5 -14 -9 -42 5 -34 17 3 6 1 7 -6 3 -16 -10 -101 15 -94 28 3 5 1 6 -6 2
-15 -10 -121 21 -145 42 -12 10 -16 11 -11 3 6 -10 1 -12 -26 -6 -19 4 -38 10
-44 13 -5 4 -18 5 -27 4 -10 -2 -18 1 -18 6 0 6 -9 8 -20 5 -11 -3 -26 0 -33
6 -8 6 -16 9 -19 6 -3 -3 -40 0 -84 6 -43 7 -89 11 -102 10 -13 0 -20 3 -17 9
6 10 2 14 -6 5z m-41 -1345 c19 1 31 -3 29 -7 -3 -4 14 -8 37 -9 24 0 51 -4
62 -9 10 -4 33 -9 49 -11 17 -2 35 -11 41 -19 12 -16 29 -21 20 -6 -4 5 18 0
48 -12 30 -12 52 -26 49 -31 -4 -5 -1 -6 5 -2 13 8 94 -33 87 -44 -3 -5 5 -6
17 -2 16 4 19 2 13 -8 -5 -8 -4 -11 3 -6 28 17 287 -199 275 -230 -3 -9 0 -12
9 -9 18 7 71 -58 74 -89 1 -12 6 -20 12 -19 11 3 77 -99 84 -127 2 -8 9 -21
16 -28 7 -8 10 -17 7 -22 -3 -5 -1 -10 3 -12 11 -4 62 -138 66 -170 1 -13 5
-28 8 -33 8 -14 28 -115 28 -145 1 -14 2 -72 4 -130 3 -118 -3 -202 -13 -196
-4 3 -5 -11 -3 -30 2 -19 0 -34 -4 -34 -5 0 -10 -17 -11 -38 -1 -22 -8 -52
-14 -68 -7 -16 -13 -31 -13 -34 -1 -3 -14 -40 -31 -83 -22 -59 -33 -76 -45
-72 -11 5 -12 3 -3 -5 14 -16 -21 -80 -45 -81 -10 0 -12 -3 -5 -6 10 -3 10 -9
0 -26 -24 -43 -98 -137 -108 -137 -6 0 -8 -4 -5 -9 8 -12 -19 -33 -29 -23 -5
4 -5 2 -2 -4 10 -18 -147 -159 -169 -150 -7 3 -11 0 -8 -7 5 -15 -84 -70 -103
-63 -8 3 -12 2 -9 -3 8 -13 -21 -34 -35 -25 -7 4 -9 3 -6 -3 4 -6 -11 -18 -36
-28 -23 -9 -42 -15 -43 -13 0 1 -7 -2 -15 -8 -12 -10 -98 -41 -132 -48 -7 -2
-20 -6 -30 -11 -9 -4 -26 -5 -37 -2 -11 3 -18 2 -15 -3 8 -13 -139 -30 -258
-30 -62 0 -150 7 -197 15 -105 18 -230 55 -230 67 0 5 -4 7 -8 4 -15 -9 -194
83 -186 95 4 8 3 9 -4 5 -17 -11 -135 72 -128 90 3 9 1 12 -5 9 -14 -9 -81 44
-73 57 4 6 2 8 -4 5 -5 -4 -22 8 -36 25 -14 18 -33 40 -42 49 -8 10 -26 32
-40 50 -19 27 -21 35 -11 48 10 14 10 14 -5 3 -14 -11 -18 -10 -28 8 -6 11 -8
25 -5 30 4 6 1 9 -7 8 -7 -2 -12 3 -10 10 1 6 -2 12 -7 12 -10 0 -82 147 -84
172 -1 10 -4 18 -8 18 -9 0 -31 79 -24 89 3 5 0 11 -7 13 -6 2 -12 23 -12 45
-1 23 -4 39 -7 37 -13 -8 -32 195 -26 282 10 153 24 244 37 244 5 0 8 8 8 18
-2 28 44 172 53 166 5 -3 6 3 2 12 -5 13 -3 15 7 9 8 -5 11 -4 6 3 -7 12 13
62 26 62 5 0 7 4 4 8 -8 13 59 114 69 105 4 -4 5 -3 2 3 -13 23 133 194 158
186 5 -2 7 0 2 4 -10 10 23 45 36 37 5 -3 7 -2 4 4 -8 13 80 86 95 77 6 -4 8
-3 5 4 -12 18 214 149 235 136 4 -3 8 -1 8 5 0 10 87 46 135 55 17 3 48 10 70
15 22 6 67 13 100 17 33 3 62 8 65 11 3 3 52 2 110 -1 58 -3 120 -6 138 -6z
m6257 -3540 c50 -11 122 -32 160 -47 161 -60 332 -165 327 -199 -2 -15 -1 -16
7 -5 8 12 15 9 43 -14 18 -16 32 -32 30 -37 -1 -5 2 -7 7 -4 9 6 105 -96 125
-132 5 -10 17 -22 25 -29 9 -7 12 -13 7 -13 -6 0 -2 -6 8 -13 30 -22 146 -237
146 -270 0 -7 6 -24 14 -38 20 -38 39 -126 30 -140 -4 -7 -3 -9 3 -6 15 9 33
-124 33 -243 0 -152 -28 -321 -67 -410 -9 -19 -17 -42 -19 -50 -5 -23 -80
-172 -98 -195 l-16 -20 7 20 c3 11 3 17 -1 13 -4 -3 -9 -17 -10 -30 -5 -40
-177 -243 -207 -243 -4 0 -11 -4 -16 -9 -5 -5 -2 -6 7 -1 23 12 1 -9 -37 -37
-100 -72 -152 -108 -164 -110 -8 -2 -20 -9 -28 -16 -7 -7 -20 -11 -28 -8 -8 3
-12 2 -9 -2 7 -12 -63 -44 -76 -36 -6 4 -8 3 -5 -3 8 -13 -138 -57 -154 -47
-7 4 -9 3 -6 -3 11 -18 -161 -43 -291 -43 -123 0 -265 17 -257 30 2 4 -6 5
-18 3 -12 -2 -36 1 -52 8 -17 7 -33 12 -37 11 -10 -2 -78 24 -165 64 -50 23
-73 39 -74 51 0 11 -3 13 -6 5 -4 -9 -12 -8 -34 5 -16 10 -29 21 -29 25 0 4
-4 7 -8 6 -14 -5 -111 75 -105 85 4 6 1 7 -6 3 -8 -5 -36 16 -78 57 -41 42
-62 70 -57 78 4 7 3 10 -3 6 -6 -4 -27 13 -48 38 -20 25 -34 45 -30 45 3 0 -4
10 -15 23 -30 31 -46 62 -28 52 7 -3 6 -1 -3 7 -22 18 -41 57 -34 68 4 6 1 9
-5 8 -10 -3 -68 116 -73 151 -1 9 -5 21 -9 26 -9 15 -36 134 -43 190 -4 28 -9
58 -12 69 -4 14 -2 16 8 10 12 -7 12 -5 0 9 -10 12 -12 41 -8 114 7 144 15
216 24 222 4 3 10 22 11 41 2 19 11 44 20 54 10 11 11 16 5 12 -17 -10 -17 -6
9 51 12 26 21 51 20 56 -3 11 66 144 78 152 6 3 8 10 5 15 -3 5 5 16 17 24 12
9 19 16 15 16 -4 0 0 11 9 25 9 14 21 22 27 18 6 -3 7 -1 3 5 -9 15 53 93 68
85 6 -3 8 -2 3 2 -10 12 33 56 47 48 6 -3 8 -2 3 2 -10 11 33 56 46 48 6 -3 7
-1 4 4 -8 12 77 86 87 76 3 -4 6 -2 6 4 0 15 90 74 101 67 5 -3 9 -1 9 5 0 16
56 42 77 35 13 -4 14 -3 5 4 -10 7 -6 12 18 22 27 11 33 11 42 -1 8 -11 9 -11
4 3 -5 16 8 25 53 33 9 2 17 4 19 5 1 2 5 3 10 5 4 1 20 7 35 13 15 7 31 11
35 10 4 -1 24 4 45 11 21 7 51 11 67 9 16 -2 27 -1 24 3 -15 25 305 17 431
-11z m-12346 -14 c35 -8 67 -20 72 -28 5 -8 9 -8 9 -2 0 8 11 8 38 -2 21 -7
36 -18 34 -26 -3 -10 -1 -10 8 -2 13 13 50 7 50 -8 0 -5 4 -7 8 -4 22 13 251
-121 235 -138 -4 -4 0 -4 8 -1 10 4 30 -5 50 -22 43 -35 108 -94 123 -110 6
-7 30 -33 53 -58 80 -86 210 -302 199 -330 -2 -7 1 -19 9 -25 20 -17 49 -96
41 -115 -3 -9 -2 -14 3 -11 13 9 42 -155 48 -274 6 -113 -16 -305 -42 -367 -8
-18 -14 -36 -14 -38 1 -20 -14 -65 -22 -65 -6 0 -7 5 -3 12 4 7 3 8 -5 4 -8
-5 -9 -12 -2 -20 13 -15 -10 -62 -29 -58 -10 2 -11 0 -3 -10 8 -10 4 -28 -19
-73 -16 -33 -34 -62 -40 -66 -5 -3 -10 -10 -11 -15 -1 -5 -6 -8 -10 -6 -5 1
-6 -1 -3 -6 3 -5 -7 -26 -21 -48 -35 -51 -49 -65 -58 -56 -5 4 -5 2 -2 -4 8
-14 -52 -86 -65 -78 -6 4 -8 2 -5 -3 8 -12 -35 -53 -131 -126 -55 -43 -65 -47
-80 -35 -15 11 -16 11 -4 -3 11 -15 7 -20 -30 -42 -131 -76 -278 -129 -423
-152 -104 -17 -310 -20 -387 -5 -112 22 -158 33 -158 40 0 4 -8 7 -17 6 -11 0
-17 5 -15 14 3 12 1 12 -9 3 -9 -9 -23 -7 -60 8 -75 29 -229 110 -229 120 0 5
-4 9 -10 9 -13 0 -116 80 -154 119 -15 16 -25 34 -21 40 3 6 0 9 -8 5 -25 -9
-186 194 -171 217 4 7 3 9 -3 6 -6 -4 -25 20 -42 53 -18 33 -29 60 -26 60 4 0
-1 7 -9 16 -9 8 -16 24 -16 34 0 10 -4 21 -10 25 -5 3 -7 12 -3 20 3 8 1 15
-5 15 -13 0 -45 118 -37 138 3 9 2 13 -2 8 -4 -4 -13 21 -19 56 -12 72 -18
333 -8 349 3 6 8 30 10 53 2 23 8 56 15 72 6 16 13 45 15 64 2 19 8 36 14 38
5 2 7 8 4 13 -3 6 -1 15 4 22 5 7 17 35 26 64 29 87 157 290 177 278 5 -4 9 3
9 14 0 28 134 166 150 156 9 -6 11 -4 5 5 -6 10 -4 12 8 7 11 -4 14 -2 10 9
-4 10 2 17 15 21 11 3 23 12 26 20 4 10 13 12 28 8 16 -4 19 -3 10 3 -10 7 -7
13 15 27 60 40 209 112 221 108 6 -3 12 0 12 6 0 6 3 10 8 9 4 -1 21 4 37 11
48 20 175 51 235 58 30 3 57 8 60 10 9 10 275 -7 339 -21z m9201 -2216 c0 -5
-5 -10 -11 -10 -5 0 -7 5 -4 10 3 6 8 10 11 10 2 0 4 -4 4 -10z m-3080 -896
c94 -6 222 -33 244 -53 13 -11 17 -12 11 -2 -6 11 -4 13 11 7 10 -4 42 -14 69
-21 63 -17 137 -50 129 -58 -3 -3 4 -3 17 0 17 5 20 3 14 -7 -5 -8 -4 -11 3
-6 11 6 192 -78 192 -90 0 -3 -4 -3 -9 1 -5 3 -12 1 -16 -4 -3 -6 4 -8 16 -6
20 4 79 -28 87 -47 2 -4 8 -8 13 -8 9 0 67 -42 138 -98 15 -12 21 -24 16 -32
-5 -8 -4 -11 2 -7 14 9 85 -53 79 -69 -3 -8 0 -13 7 -11 7 1 11 -4 9 -11 -1
-8 2 -11 8 -7 15 9 42 -15 36 -31 -3 -8 0 -13 6 -11 6 1 17 -8 23 -20 7 -13
15 -20 18 -17 4 4 10 -2 14 -12 3 -10 9 -21 13 -24 3 -3 23 -27 43 -54 37 -49
47 -74 25 -60 -7 4 -8 3 -4 -5 4 -6 11 -9 16 -6 8 5 33 -29 35 -45 0 -3 10
-20 23 -37 19 -28 45 -81 92 -188 14 -33 40 -105 40 -111 0 -3 -6 -2 -12 1 -7
4 -4 0 6 -9 16 -13 17 -18 6 -31 -11 -13 -10 -15 2 -10 12 5 18 -4 23 -32 5
-21 10 -42 11 -48 23 -75 45 -261 46 -390 1 -182 -26 -381 -64 -472 -6 -15
-10 -34 -9 -42 1 -8 -2 -10 -10 -5 -8 4 -10 3 -5 -4 9 -14 -4 -63 -14 -57 -5
3 -6 -5 -2 -17 3 -14 1 -19 -6 -14 -7 4 -10 -1 -7 -14 2 -11 1 -20 -3 -20 -4
0 -9 -10 -9 -22 -1 -13 -8 -27 -15 -33 -7 -5 -14 -17 -16 -25 -5 -30 -35 -89
-42 -85 -4 3 -7 -3 -6 -13 0 -9 -5 -16 -12 -14 -8 1 -11 -2 -7 -8 9 -14 -14
-52 -29 -47 -7 3 -13 -1 -13 -9 0 -7 5 -11 10 -7 5 3 4 -4 -3 -16 -6 -12 -15
-19 -20 -16 -6 3 -7 0 -5 -8 3 -7 -3 -24 -15 -37 -11 -13 -20 -26 -20 -29 0
-3 -17 -25 -39 -49 -21 -23 -37 -42 -35 -42 3 0 -10 -16 -28 -35 -17 -20 -38
-33 -45 -30 -9 3 -11 0 -7 -7 4 -6 -1 -17 -11 -25 -11 -7 -16 -13 -12 -13 3 0
-23 -27 -58 -60 -38 -35 -70 -58 -77 -54 -6 4 -8 3 -5 -4 9 -14 -89 -86 -104
-76 -8 4 -9 3 -5 -4 4 -7 -2 -16 -16 -22 -13 -6 -39 -22 -57 -36 -19 -13 -41
-22 -48 -19 -8 2 -11 0 -8 -5 8 -12 -112 -73 -128 -64 -7 4 -9 4 -5 -1 15 -16
-163 -86 -252 -99 -9 -1 -20 -5 -25 -8 -19 -11 -161 -38 -250 -47 -151 -16
-423 -2 -495 26 -8 3 -32 7 -53 9 -21 2 -48 9 -60 16 -12 6 -37 13 -56 14 -19
2 -38 8 -41 15 -4 6 -10 10 -14 9 -14 -3 -66 12 -62 18 2 4 -7 8 -22 9 -14 0
-29 8 -34 17 -5 9 -14 14 -19 10 -15 -9 -70 16 -62 29 3 6 1 7 -5 3 -14 -8
-124 53 -116 65 3 5 -1 7 -8 4 -7 -3 -41 13 -76 36 -49 32 -60 44 -52 54 8 10
8 15 -1 21 -7 4 -9 3 -5 -4 15 -25 -16 -20 -46 8 -18 16 -26 28 -17 24 10 -3
20 -1 23 4 3 5 -7 8 -24 6 -22 -3 -33 2 -42 19 -7 12 -11 25 -10 29 1 4 -4 5
-11 2 -24 -9 -233 226 -223 252 3 8 0 11 -8 8 -7 -3 -21 11 -32 33 -10 21 -24
43 -30 48 -17 15 -72 117 -115 215 -29 64 -35 87 -27 98 9 10 8 12 -1 10 -7
-2 -18 14 -25 34 -8 21 -10 35 -5 32 16 -9 10 8 -6 20 -22 16 -63 224 -74 371
-4 66 -4 175 0 243 8 116 51 345 69 367 5 6 8 13 8 18 0 4 4 21 7 38 5 23 11
29 23 24 13 -5 14 -3 6 5 -13 13 -7 50 8 50 5 0 6 4 3 10 -7 12 54 145 94 206
17 25 31 49 31 55 0 5 6 9 14 9 8 0 18 5 22 12 4 7 3 8 -4 4 -19 -11 -14 9 8
37 12 14 26 25 33 23 7 -1 9 -1 5 1 -5 3 -8 9 -8 14 0 6 5 7 12 3 7 -4 8 -3 4
5 -5 7 11 35 40 69 72 88 225 233 236 225 7 -3 8 -1 4 5 -7 12 82 84 95 76 5
-3 9 1 9 8 0 12 24 29 131 93 65 39 121 65 131 59 7 -4 8 -3 4 4 -4 7 -2 13 3
13 20 3 26 5 49 17 12 7 27 10 32 7 6 -3 10 -2 10 3 0 6 14 15 30 21 17 5 30
8 30 5 0 -2 14 3 31 11 17 9 37 14 44 12 7 -3 17 -1 22 4 37 37 356 82 513 72
41 -3 104 -6 140 -9z m6104 -4094 c43 -5 86 -16 94 -22 10 -8 13 -8 9 -2 -6
10 101 -12 153 -32 8 -3 17 -5 20 -5 3 0 15 -7 28 -15 12 -8 22 -12 22 -9 0 7
89 -38 165 -83 77 -46 161 -112 157 -124 -1 -5 2 -7 8 -3 6 3 38 -23 73 -58
82 -84 108 -119 103 -134 -3 -7 0 -12 7 -10 7 1 11 -4 9 -11 -1 -8 2 -11 7 -8
13 8 54 -51 45 -65 -4 -7 -3 -9 2 -6 6 3 27 -26 47 -64 21 -38 35 -69 32 -69
-3 0 2 -11 10 -24 9 -13 18 -32 20 -42 2 -11 12 -39 21 -64 27 -76 52 -239 54
-359 1 -108 -16 -261 -29 -261 -3 0 -7 -12 -7 -27 -1 -16 -4 -38 -7 -49 -21
-80 -85 -234 -97 -234 -4 0 -7 -6 -7 -13 0 -26 -84 -148 -143 -206 -19 -19
-28 -31 -20 -26 8 4 4 -4 -9 -18 -23 -25 -49 -38 -37 -19 3 5 -1 9 -9 9 -11 0
-12 -4 -4 -14 14 -16 -7 -47 -24 -36 -5 3 -7 2 -4 -4 8 -13 -41 -56 -54 -48
-5 4 -8 1 -7 -6 6 -28 -303 -212 -317 -189 -3 6 -12 10 -18 10 -8 0 -8 -3 2
-9 17 -11 -3 -25 -25 -17 -8 3 -13 2 -10 -3 7 -10 -110 -45 -123 -36 -5 3 -11
0 -13 -5 -2 -6 -23 -12 -48 -14 -25 -2 -53 -7 -63 -11 -10 -4 -93 -5 -185 -2
-137 4 -185 10 -267 32 -55 14 -102 29 -105 33 -3 4 -14 8 -25 10 -34 4 -224
103 -247 128 -13 13 -27 24 -31 24 -18 0 -78 54 -73 66 3 8 0 11 -9 8 -16 -7
-82 53 -77 70 2 6 0 8 -4 4 -9 -10 -35 12 -28 23 3 5 1 8 -4 7 -9 -3 -62 54
-62 67 0 4 -9 14 -20 23 -12 10 -22 27 -23 39 0 12 -4 20 -8 17 -8 -5 -30 20
-33 38 -1 7 -14 32 -30 55 -15 23 -29 53 -30 67 0 13 -4 22 -7 20 -13 -7 -17
24 -6 35 9 10 9 12 -3 9 -8 -2 -14 3 -12 10 1 6 -3 12 -10 12 -6 0 -9 3 -6 6
4 3 0 17 -7 31 -7 14 -12 34 -10 44 3 12 0 17 -7 13 -7 -5 -9 2 -6 19 3 15 1
24 -4 21 -6 -4 -7 7 -5 25 3 17 2 29 -3 26 -11 -7 -24 110 -14 126 4 7 3 9 -3
6 -12 -7 -18 166 -8 184 4 5 8 36 10 67 5 95 15 136 38 156 17 15 18 18 5 13
-10 -4 -18 -2 -18 3 0 6 3 10 8 10 4 0 8 10 9 23 0 12 7 36 14 52 6 17 13 36
15 44 4 20 72 158 101 204 14 22 28 35 35 31 7 -5 8 -3 3 5 -9 16 33 70 148
192 15 16 33 27 39 23 6 -4 8 -3 4 4 -13 22 232 190 257 176 7 -4 8 -3 4 2 -4
4 13 19 39 31 36 17 50 20 61 11 11 -8 12 -7 7 6 -4 10 -1 16 10 17 20 2 25 3
60 18 16 6 36 9 43 7 8 -3 12 -2 9 3 -5 7 119 34 204 44 65 8 182 6 254 -3z
m-12224 -35 c90 -21 90 -21 146 -38 27 -8 66 -24 87 -36 20 -11 37 -18 37 -15
0 8 113 -56 121 -68 3 -5 8 -9 10 -8 11 4 38 -13 33 -21 -3 -5 1 -6 9 -3 9 3
22 -4 31 -18 9 -13 19 -22 21 -20 11 6 64 -42 58 -52 -3 -6 -2 -8 2 -3 12 10
56 -33 48 -47 -3 -6 -2 -8 2 -3 10 9 95 -71 95 -89 0 -7 7 -15 16 -18 8 -3 12
-11 8 -17 -4 -7 -3 -9 3 -6 6 4 27 -19 48 -49 20 -31 31 -53 23 -49 -7 4 -3
-2 8 -12 26 -21 67 -100 59 -112 -2 -5 2 -12 11 -15 9 -3 14 -12 12 -18 -3 -7
2 -19 9 -27 10 -10 11 -17 4 -24 -6 -6 -11 -16 -11 -21 0 -6 4 -4 10 4 7 11
11 8 21 -15 44 -111 73 -307 66 -435 -10 -158 -17 -211 -28 -204 -5 3 -6 -2
-3 -10 3 -9 3 -24 -1 -33 -9 -21 -11 -30 -13 -60 -1 -15 -9 -23 -19 -23 -11 0
-14 -3 -7 -8 16 -10 -12 -105 -28 -96 -7 4 -8 3 -4 -5 10 -16 -53 -143 -67
-134 -6 3 -7 1 -3 -6 6 -9 -24 -64 -44 -81 -3 -3 -16 -22 -29 -43 -12 -20 -27
-35 -32 -31 -5 3 -9 -1 -9 -9 0 -19 -138 -159 -150 -152 -6 3 -10 0 -10 -9 0
-8 -29 -35 -64 -60 -72 -51 -104 -68 -91 -46 5 9 4 11 -4 6 -6 -4 -9 -11 -6
-16 7 -11 -72 -53 -84 -46 -4 3 -15 -4 -24 -15 -9 -10 -24 -20 -32 -20 -20 -2
-24 -3 -69 -23 -21 -9 -41 -15 -44 -12 -3 3 -11 1 -18 -5 -8 -6 -21 -9 -29 -5
-10 4 -14 2 -9 -6 5 -7 -1 -9 -19 -6 -15 3 -24 2 -22 -2 7 -12 -146 -30 -251
-30 -121 0 -225 10 -219 20 3 5 -4 6 -15 3 -11 -3 -28 -2 -37 2 -10 5 -24 7
-32 6 -7 -1 -11 2 -8 6 3 5 -4 9 -16 9 -32 -1 -117 25 -117 36 0 5 -4 7 -9 3
-14 -8 -81 27 -74 38 3 6 1 7 -5 3 -13 -8 -94 33 -119 61 -10 10 -13 12 -8 4
11 -17 -32 8 -80 46 -24 20 -26 25 -14 40 13 17 12 17 -4 4 -15 -12 -20 -12
-26 -2 -5 7 -12 13 -17 14 -13 3 -154 140 -154 150 0 5 6 5 13 1 7 -4 9 -3 4
2 -5 5 -12 9 -16 9 -15 0 -44 37 -108 140 -14 22 -72 140 -98 198 -9 21 -14
45 -11 53 3 8 2 13 -3 10 -5 -3 -16 22 -24 57 -26 106 -30 146 -17 163 7 8 10
17 6 21 -3 3 -6 1 -6 -6 0 -7 -4 -9 -10 -6 -6 4 -10 64 -10 147 0 132 1 140
18 127 15 -13 16 -12 3 3 -15 20 -4 107 30 218 22 75 33 95 46 87 5 -3 10 0
10 8 0 8 -5 12 -10 8 -32 -20 77 184 145 272 88 113 201 224 233 229 8 1 18 6
22 11 4 4 2 5 -4 1 -7 -4 -13 -5 -13 -2 0 10 88 65 94 59 3 -4 6 -1 6 5 0 7 5
12 10 12 6 0 24 10 40 21 16 13 36 19 45 15 9 -3 13 -2 10 4 -5 8 42 35 54 30
2 -1 7 2 10 7 16 21 242 86 279 80 12 -2 22 -1 22 4 0 21 313 17 410 -6z
m6120 -3600 c52 -8 99 -15 103 -15 5 0 6 -4 3 -9 -3 -4 6 -6 19 -3 14 2 25 0
25 -4 0 -5 11 -10 25 -10 14 -1 38 -10 53 -20 15 -10 33 -17 40 -16 26 6 252
-121 252 -141 0 -6 3 -7 6 -4 13 12 178 -138 169 -153 -3 -5 0 -12 6 -16 8 -5
9 -3 4 6 -5 9 -4 11 3 6 15 -9 105 -126 97 -126 -3 0 2 -9 12 -19 28 -30 58
-85 42 -76 -8 5 -4 -3 8 -16 26 -29 74 -134 66 -143 -4 -3 -2 -6 4 -6 6 0 14
-15 18 -32 4 -18 10 -40 12 -48 3 -8 6 -27 7 -42 0 -14 4 -24 8 -22 13 8 32
-146 32 -271 1 -135 -6 -210 -26 -279 -14 -48 -12 -41 -21 -88 -5 -21 -12 -38
-18 -38 -6 0 -7 5 -3 12 4 7 3 8 -5 4 -9 -6 -9 -11 -1 -21 9 -10 5 -27 -14
-68 -14 -30 -26 -57 -26 -61 0 -5 -9 -21 -21 -37 -18 -26 -23 -28 -37 -17 -15
11 -15 11 -5 -3 7 -9 9 -20 5 -24 -4 -5 -1 -5 7 0 10 6 11 4 5 -6 -62 -98 -77
-119 -85 -119 -6 0 -7 5 -3 12 4 7 3 8 -4 4 -6 -4 -8 -14 -5 -22 4 -10 -6 -28
-25 -48 -18 -17 -43 -46 -58 -64 -14 -17 -30 -29 -35 -26 -5 3 -8 1 -7 -4 4
-14 -83 -84 -98 -78 -8 3 -11 0 -8 -8 6 -16 -132 -110 -148 -100 -6 4 -8 3 -4
-4 5 -9 -32 -29 -43 -23 -2 2 -7 -1 -10 -6 -7 -11 -155 -70 -191 -77 -14 -2
-40 -10 -58 -16 -18 -7 -46 -10 -62 -8 -16 2 -27 1 -25 -2 14 -23 -276 -26
-385 -5 -41 8 -84 17 -95 19 -11 2 -21 5 -22 6 -3 3 -19 7 -34 9 -5 0 -7 5 -4
11 3 6 -1 7 -9 4 -8 -3 -39 2 -68 11 -69 23 -209 95 -203 105 3 4 -3 7 -13 6
-9 0 -16 5 -14 12 1 8 -2 11 -9 6 -7 -4 -18 1 -26 11 -7 11 -13 15 -13 11 0
-5 -7 -3 -15 4 -8 7 -12 17 -8 23 3 6 1 7 -5 3 -17 -10 -144 105 -137 124 4 8
3 11 -1 7 -10 -10 -45 23 -37 36 3 6 1 7 -5 3 -6 -3 -19 7 -28 24 -10 16 -22
30 -27 30 -4 0 -6 4 -3 9 3 5 -1 11 -9 15 -8 3 -15 12 -15 21 0 8 -4 15 -10
15 -5 0 -10 7 -10 15 0 8 -5 15 -10 15 -6 0 -9 3 -8 8 1 4 -10 27 -26 50 -15
24 -25 50 -22 58 3 8 2 13 -3 10 -18 -11 -21 27 -4 40 17 12 16 13 -4 7 -14
-3 -24 -1 -24 6 -2 20 -5 26 -16 46 -17 30 -45 145 -39 160 2 7 0 17 -5 22
-16 16 -32 185 -26 283 7 117 18 191 26 186 3 -2 7 12 8 33 2 41 37 157 54
178 6 7 9 13 5 13 -8 0 42 100 62 123 8 9 12 17 8 17 -4 0 1 14 11 30 9 17 21
30 25 30 4 0 8 5 8 10 0 6 19 35 41 66 36 46 44 52 58 42 13 -10 14 -10 3 2
-10 12 -6 21 25 52 30 31 39 35 52 25 14 -10 14 -10 3 4 -11 14 -5 23 44 65
31 27 65 52 75 56 10 4 19 12 19 18 0 5 7 10 15 10 8 0 15 4 15 9 0 5 17 16
38 25 20 9 55 28 77 41 36 22 134 64 160 69 6 1 15 4 20 7 22 13 115 30 126
23 7 -4 9 -3 5 4 -7 12 92 28 124 19 11 -3 18 -1 14 4 -8 14 180 10 286 -6z"/>
<path d="M10410 18016 c0 -2 7 -7 16 -10 8 -3 12 -2 9 4 -6 10 -25 14 -25 6z"/>
<path d="M9049 17943 c-12 -16 -12 -17 2 -6 9 7 20 9 24 5 5 -4 5 -1 1 6 -9
16 -11 15 -27 -5z"/>
<path d="M10725 17720 c-3 -6 1 -7 9 -4 18 7 21 14 7 14 -6 0 -13 -4 -16 -10z"/>
<path d="M8826 17702 c-3 -5 1 -9 9 -9 8 0 12 4 9 9 -3 4 -7 8 -9 8 -2 0 -6
-4 -9 -8z"/>
<path d="M10895 17421 c-3 -5 -2 -12 3 -15 5 -3 9 1 9 9 0 17 -3 19 -12 6z"/>
<path d="M8845 16251 c-3 -5 -2 -12 3 -15 5 -3 9 1 9 9 0 17 -3 19 -12 6z"/>
<path d="M9086 16008 c3 -5 10 -6 15 -3 13 9 11 12 -6 12 -8 0 -12 -4 -9 -9z"/>
<path d="M9166 15961 c-3 -5 1 -11 9 -14 9 -4 12 -1 8 9 -6 16 -10 17 -17 5z"/>
<path d="M16655 14420 c3 -5 8 -10 11 -10 2 0 4 5 4 10 0 6 -5 10 -11 10 -5 0
-7 -4 -4 -10z"/>
<path d="M15150 14360 c0 -5 5 -10 11 -10 5 0 7 5 4 10 -3 6 -8 10 -11 10 -2
0 -4 -4 -4 -10z"/>
<path d="M16719 14333 c-13 -16 -12 -17 4 -4 16 13 21 21 13 21 -2 0 -10 -8
-17 -17z"/>
<path d="M15010 14201 c-8 -6 -17 -8 -20 -6 -4 2 -7 -2 -7 -10 0 -11 5 -10 24
2 13 8 23 17 23 19 0 6 -3 5 -20 -5z"/>
<path d="M16971 12873 c-1 -17 16 -25 25 -12 4 7 3 9 -4 5 -5 -3 -13 0 -15 6
-4 9 -6 10 -6 1z"/>
<path d="M3249 14593 c-13 -16 -12 -17 4 -4 9 7 17 15 17 17 0 8 -8 3 -21 -13z"/>
<path d="M4396 14347 c3 -10 9 -15 12 -12 3 3 0 11 -7 18 -10 9 -11 8 -5 -6z"/>
<path d="M2680 12716 c0 -2 8 -10 18 -17 15 -13 16 -12 3 4 -13 16 -21 21 -21
13z"/>
<path d="M4234 12429 c-3 -6 -2 -15 3 -20 5 -5 9 -1 9 11 0 23 -2 24 -12 9z"/>
<path d="M3300 12280 c-8 -5 -10 -10 -5 -10 6 0 17 5 25 10 8 5 11 10 5 10 -5
0 -17 -5 -25 -10z"/>
<path d="M10306 11452 c-3 -5 1 -9 9 -9 8 0 12 4 9 9 -3 4 -7 8 -9 8 -2 0 -6
-4 -9 -8z"/>
<path d="M10793 11155 c0 -8 4 -12 9 -9 5 3 6 10 3 15 -9 13 -12 11 -12 -6z"/>
<path d="M8570 10976 c7 -7 13 -7 20 0 6 6 3 10 -10 10 -13 0 -16 -4 -10 -10z"/>
<path d="M8354 8952 c4 -3 14 -7 22 -8 9 -1 13 0 10 4 -4 3 -14 7 -22 8 -9 1
-13 0 -10 -4z"/>
<path d="M11122 8857 c-8 -10 -6 -13 11 -14 12 0 16 1 9 4 -6 3 -10 9 -6 14 8
14 -2 11 -14 -4z"/>
<path d="M11047 8779 c7 -7 15 -10 18 -7 3 3 -2 9 -12 12 -14 6 -15 5 -6 -5z"/>
<path d="M8851 8444 c0 -11 3 -14 6 -6 3 7 2 16 -1 19 -3 4 -6 -2 -5 -13z"/>
<path d="M14894 6826 c1 -8 5 -18 8 -22 4 -3 5 1 4 10 -1 8 -5 18 -8 22 -4 3
-5 -1 -4 -10z"/>
<path d="M16471 5153 c-1 -17 16 -25 25 -12 4 7 3 9 -4 5 -5 -3 -13 0 -15 6
-4 9 -6 10 -6 1z"/>
<path d="M3830 7380 c-9 -6 -10 -10 -3 -10 6 0 15 5 18 10 8 12 4 12 -15 0z"/>
<path d="M2640 6905 c-7 -9 -11 -17 -9 -20 3 -2 10 5 17 15 14 24 10 26 -8 5z"/>
<path d="M2600 6861 c0 -6 4 -13 10 -16 6 -3 7 1 4 9 -7 18 -14 21 -14 7z"/>
<path d="M2585 6820 c-2 -3 5 -6 15 -7 11 -1 22 2 24 5 3 4 -4 8 -15 8 -11 0
-22 -3 -24 -6z"/>
<path d="M2523 6693 c0 -9 4 -10 14 -2 7 6 13 12 13 14 0 1 -6 2 -13 2 -8 0
-14 -6 -14 -14z"/>
<path d="M2766 5338 c3 -5 10 -6 15 -3 13 9 11 12 -6 12 -8 0 -12 -4 -9 -9z"/>
<path d="M4366 5262 c-3 -5 1 -9 9 -9 8 0 12 4 9 9 -3 4 -7 8 -9 8 -2 0 -6 -4
-9 -8z"/>
<path d="M2923 5215 c0 -8 4 -12 9 -9 5 3 6 10 3 15 -9 13 -12 11 -12 -6z"/>
<path d="M10475 3591 c-3 -5 -2 -12 3 -15 5 -3 9 1 9 9 0 17 -3 19 -12 6z"/>
<path d="M8923 3425 c0 -8 4 -12 9 -9 5 3 6 10 3 15 -9 13 -12 11 -12 -6z"/>
<path d="M8796 1912 c-3 -4 4 -9 15 -9 23 -2 25 3 4 10 -8 4 -16 3 -19 -1z"/>
<path d="M8830 1886 c0 -2 8 -10 18 -17 15 -13 16 -12 3 4 -13 16 -21 21 -21
13z"/>
<path d="M10575 1729 c-4 -6 -5 -12 -2 -15 2 -3 7 2 10 11 7 17 1 20 -8 4z"/>
<path d="M10470 1651 c0 -6 4 -13 10 -16 6 -3 7 1 4 9 -7 18 -14 21 -14 7z"/>
<path d="M10420 19480 c-9 -6 -10 -10 -3 -10 6 0 15 5 18 10 8 12 4 12 -15 0z"/>
<path d="M11495 18911 c-3 -5 -2 -12 3 -15 5 -3 9 1 9 9 0 17 -3 19 -12 6z"/>
<path d="M11560 18860 c-9 -6 -10 -10 -3 -10 6 0 15 5 18 10 8 12 4 12 -15 0z"/>
<path d="M11645 18779 c-4 -6 -5 -12 -2 -15 2 -3 7 2 10 11 7 17 1 20 -8 4z"/>
<path d="M12211 17867 c-8 -10 -7 -14 2 -14 8 0 14 6 14 14 0 7 -1 13 -2 13
-2 0 -8 -6 -14 -13z"/>
<path d="M4315 15909 c-3 -4 2 -6 10 -5 21 3 28 13 10 13 -9 0 -18 -4 -20 -8z"/>
<path d="M14760 15756 c0 -2 7 -9 15 -16 9 -7 15 -8 15 -2 0 5 -7 12 -15 16
-8 3 -15 4 -15 2z"/>
<path d="M7545 15720 c-3 -6 1 -7 9 -4 18 7 21 14 7 14 -6 0 -13 -4 -16 -10z"/>
<path d="M4923 15655 c0 -8 4 -15 9 -15 4 0 8 4 8 9 0 6 -4 12 -8 15 -5 3 -9
-1 -9 -9z"/>
<path d="M1897 15339 c7 -7 15 -10 18 -7 3 3 -2 9 -12 12 -14 6 -15 5 -6 -5z"/>
<path d="M1750 15276 c0 -2 8 -10 18 -17 15 -13 16 -12 3 4 -13 16 -21 21 -21
13z"/>
<path d="M5656 14997 c3 -10 9 -15 12 -12 3 3 0 11 -7 18 -10 9 -11 8 -5 -6z"/>
<path d="M11387 14969 c7 -7 15 -10 18 -7 3 3 -2 9 -12 12 -14 6 -15 5 -6 -5z"/>
<path d="M1436 14848 c3 -5 10 -6 15 -3 13 9 11 12 -6 12 -8 0 -12 -4 -9 -9z"/>
<path d="M8406 14832 c-3 -5 1 -9 9 -9 8 0 15 4 15 9 0 4 -4 8 -9 8 -6 0 -12
-4 -15 -8z"/>
<path d="M11095 14779 c-4 -6 -5 -12 -2 -15 2 -3 7 2 10 11 7 17 1 20 -8 4z"/>
<path d="M1353 14665 c0 -8 4 -12 9 -9 5 3 6 10 3 15 -9 13 -12 11 -12 -6z"/>
<path d="M8679 14663 c-13 -16 -12 -17 4 -4 16 13 21 21 13 21 -2 0 -10 -8
-17 -17z"/>
<path d="M8640 14660 c0 -5 5 -10 11 -10 5 0 7 5 4 10 -3 6 -8 10 -11 10 -2 0
-4 -4 -4 -10z"/>
<path d="M10418 13083 c7 -3 16 -2 19 1 4 3 -2 6 -13 5 -11 0 -14 -3 -6 -6z"/>
<path d="M8370 12841 c0 -8 -7 -11 -17 -6 -15 5 -16 4 -5 -6 9 -10 15 -10 24
-1 6 6 9 15 5 19 -4 3 -7 1 -7 -6z"/>
<path d="M11280 12785 c0 -7 30 -13 34 -7 3 4 -4 9 -15 9 -10 1 -19 0 -19 -2z"/>
<path d="M11470 12703 c0 -6 8 -17 18 -24 16 -13 16 -13 2 6 -8 11 -16 22 -17
24 -2 2 -3 0 -3 -6z"/>
<path d="M1200 12590 c0 -5 5 -10 11 -10 5 0 7 5 4 10 -3 6 -8 10 -11 10 -2 0
-4 -4 -4 -10z"/>
<path d="M6295 12591 c-3 -5 -2 -12 3 -15 5 -3 9 1 9 9 0 17 -3 19 -12 6z"/>
<path d="M7376 12138 c3 -5 10 -6 15 -3 13 9 11 12 -6 12 -8 0 -12 -4 -9 -9z"/>
<path d="M12564 12118 l-19 -23 23 19 c21 18 27 26 19 26 -2 0 -12 -10 -23
-22z"/>
<path d="M7287 12055 c3 -8 9 -12 14 -9 12 7 11 11 -5 17 -10 4 -13 1 -9 -8z"/>
<path d="M12241 12056 c-9 -11 -9 -16 1 -22 7 -4 10 -4 6 1 -4 4 -3 14 3 22 6
7 9 13 6 13 -2 0 -10 -6 -16 -14z"/>
<path d="M1487 12029 c7 -7 15 -10 18 -7 3 3 -2 9 -12 12 -14 6 -15 5 -6 -5z"/>
<path d="M17877 11779 c7 -7 15 -10 18 -7 3 3 -2 9 -12 12 -14 6 -15 5 -6 -5z"/>
<path d="M1734 11708 c-4 -7 -4 -10 1 -6 4 4 15 2 24 -5 14 -11 14 -10 2 6
-16 20 -18 21 -27 5z"/>
<path d="M17569 11488 c-5 -18 -6 -38 -1 -34 7 8 12 36 6 36 -2 0 -4 -1 -5 -2z"/>
<path d="M5895 11460 c-3 -6 1 -7 9 -4 18 7 21 14 7 14 -6 0 -13 -4 -16 -10z"/>
<path d="M17463 11397 c0 -8 6 -14 14 -14 9 0 10 4 2 14 -6 7 -12 13 -14 13
-1 0 -2 -6 -2 -13z"/>
<path d="M2110 11370 c-9 -6 -10 -10 -3 -10 6 0 15 5 18 10 8 12 4 12 -15 0z"/>
<path d="M2153 11335 c0 -8 4 -12 9 -9 5 3 6 10 3 15 -9 13 -12 11 -12 -6z"/>
<path d="M17326 11302 c-3 -5 1 -9 9 -9 8 0 12 4 9 9 -3 4 -7 8 -9 8 -2 0 -6
-4 -9 -8z"/>
<path d="M13319 11233 c-13 -16 -12 -17 4 -4 16 13 21 21 13 21 -2 0 -10 -8
-17 -17z"/>
<path d="M4905 11221 c-3 -5 0 -13 6 -17 7 -4 9 -3 5 4 -3 5 0 13 6 15 9 4 10
6 1 6 -6 1 -14 -3 -18 -8z"/>
<path d="M17192 11216 c7 -8 15 -12 17 -11 5 6 -10 25 -20 25 -5 0 -4 -6 3
-14z"/>
<path d="M2896 10977 c3 -10 9 -15 12 -12 3 3 0 11 -7 18 -10 9 -11 8 -5 -6z"/>
<path d="M6555 10681 c-3 -5 -2 -12 3 -15 5 -3 9 1 9 9 0 17 -3 19 -12 6z"/>
<path d="M12985 10679 c-4 -6 -5 -12 -2 -15 2 -3 7 2 10 11 7 17 1 20 -8 4z"/>
<path d="M16653 8695 c0 -8 4 -12 9 -9 5 3 6 10 3 15 -9 13 -12 11 -12 -6z"/>
<path d="M2800 8636 c0 -2 7 -7 16 -10 8 -3 12 -2 9 4 -6 10 -25 14 -25 6z"/>
<path d="M2530 8520 c-6 -11 -8 -20 -6 -20 3 0 10 9 16 20 6 11 8 20 6 20 -3
0 -10 -9 -16 -20z"/>
<path d="M14420 8301 c-7 -15 -7 -22 2 -27 7 -4 10 -4 6 1 -4 4 -3 16 3 26 5
11 7 19 5 19 -3 0 -10 -9 -16 -19z"/>
<path d="M14310 8211 c0 -6 4 -13 10 -16 6 -3 7 1 4 9 -7 18 -14 21 -14 7z"/>
<path d="M5230 8206 c0 -2 7 -7 16 -10 8 -3 12 -2 9 4 -6 10 -25 14 -25 6z"/>
<path d="M5293 8135 c0 -8 4 -12 9 -9 5 3 6 10 3 15 -9 13 -12 11 -12 -6z"/>
<path d="M17643 8135 c0 -8 4 -12 9 -9 5 3 6 10 3 15 -9 13 -12 11 -12 -6z"/>
<path d="M5400 8036 c0 -2 8 -10 18 -17 15 -13 16 -12 3 4 -13 16 -21 21 -21
13z"/>
<path d="M5595 7960 c3 -5 8 -10 11 -10 2 0 4 5 4 10 0 6 -5 10 -11 10 -5 0
-7 -4 -4 -10z"/>
<path d="M1526 7687 c3 -10 9 -15 12 -12 3 3 0 11 -7 18 -10 9 -11 8 -5 -6z"/>
<path d="M12553 7575 c0 -8 4 -12 9 -9 5 3 6 10 3 15 -9 13 -12 11 -12 -6z"/>
<path d="M7576 7382 c-3 -5 1 -9 9 -9 8 0 12 4 9 9 -3 4 -7 8 -9 8 -2 0 -6 -4
-9 -8z"/>
<path d="M6645 7300 c-3 -5 -1 -10 4 -10 6 0 11 5 11 10 0 6 -2 10 -4 10 -3 0
-8 -4 -11 -10z"/>
<path d="M13035 7240 c-3 -6 1 -7 9 -4 18 7 21 14 7 14 -6 0 -13 -4 -16 -10z"/>
<path d="M13117 7170 c7 -26 19 -34 29 -19 4 8 3 9 -4 5 -7 -4 -12 -1 -12 8 0
8 -4 17 -9 20 -5 4 -7 -3 -4 -14z"/>
<path d="M7853 7155 c0 -7 6 -11 14 -8 7 3 13 6 13 8 0 2 -6 5 -13 8 -8 3 -14
-1 -14 -8z"/>
<path d="M11725 7159 c-4 -6 -5 -12 -2 -15 2 -3 7 2 10 11 7 17 1 20 -8 4z"/>
<path d="M8073 7015 c0 -8 4 -12 9 -9 5 3 6 10 3 15 -9 13 -12 11 -12 -6z"/>
<path d="M13470 6946 c0 -2 8 -10 18 -17 15 -13 16 -12 3 4 -13 16 -21 21 -21
13z"/>
<path d="M6095 6901 c-3 -5 -2 -12 3 -15 5 -3 9 1 9 9 0 17 -3 19 -12 6z"/>
<path d="M1120 6855 c-11 -13 -10 -14 4 -9 9 3 16 10 16 15 0 13 -6 11 -20 -6z"/>
<path d="M13445 6851 c-3 -5 -2 -12 3 -15 5 -3 9 1 9 9 0 17 -3 19 -12 6z"/>
<path d="M18443 6785 c0 -8 4 -12 9 -9 5 3 6 10 3 15 -9 13 -12 11 -12 -6z"/>
<path d="M1215 5300 c-3 -6 1 -7 9 -4 18 7 21 14 7 14 -6 0 -13 -4 -16 -10z"/>
<path d="M1445 4830 c-3 -6 1 -7 9 -4 18 7 21 14 7 14 -6 0 -13 -4 -16 -10z"/>
<path d="M11160 4796 c0 -2 8 -10 18 -17 15 -13 16 -12 3 4 -13 16 -21 21 -21
13z"/>
<path d="M5722 4760 c-9 -15 -9 -21 1 -26 6 -4 9 -4 5 1 -4 4 -3 14 4 22 6 7
9 15 7 18 -3 2 -10 -4 -17 -15z"/>
<path d="M1621 4584 c6 -7 16 -11 21 -8 11 7 3 17 -18 20 -12 2 -13 -1 -3 -12z"/>
<path d="M5539 4518 c-5 -18 -6 -38 -1 -34 7 8 12 36 6 36 -2 0 -4 -1 -5 -2z"/>
<path d="M1861 4344 c0 -11 3 -14 6 -6 3 7 2 16 -1 19 -3 4 -6 -2 -5 -13z"/>
<path d="M14156 4332 c-3 -5 1 -9 9 -9 8 0 12 4 9 9 -3 4 -7 8 -9 8 -2 0 -6
-4 -9 -8z"/>
<path d="M5243 4225 c0 -8 4 -12 9 -9 5 3 6 10 3 15 -9 13 -12 11 -12 -6z"/>
<path d="M5180 4186 c0 -2 7 -7 16 -10 8 -3 12 -2 9 4 -6 10 -25 14 -25 6z"/>
<path d="M17295 4061 c-3 -5 -2 -12 3 -15 5 -3 9 1 9 9 0 17 -3 19 -12 6z"/>
<path d="M4990 4021 c0 -6 4 -13 10 -16 6 -3 7 1 4 9 -7 18 -14 21 -14 7z"/>
<path d="M14710 3961 c0 -6 4 -13 10 -16 6 -3 7 1 4 9 -7 18 -14 21 -14 7z"/>
<path d="M2410 3940 c0 -5 5 -10 11 -10 5 0 7 5 4 10 -3 6 -8 10 -11 10 -2 0
-4 -4 -4 -10z"/>
<path d="M14870 3891 c0 -6 4 -13 10 -16 6 -3 7 1 4 9 -7 18 -14 21 -14 7z"/>
<path d="M2714 3808 c-4 -7 -4 -10 1 -6 4 4 15 2 24 -5 14 -11 14 -10 2 6 -16
20 -18 21 -27 5z"/>
<path d="M2760 3781 c0 -6 4 -12 8 -15 5 -3 9 1 9 9 0 8 -4 15 -9 15 -4 0 -8
-4 -8 -9z"/>
<path d="M7361 3574 c0 -11 3 -14 6 -6 3 7 2 16 -1 19 -3 4 -6 -2 -5 -13z"/>
<path d="M12126 1533 c-6 -14 -5 -15 5 -6 7 7 10 15 7 18 -3 3 -9 -2 -12 -12z"/>
<path d="M7550 1320 c0 -5 5 -10 11 -10 5 0 7 5 4 10 -3 6 -8 10 -11 10 -2 0
-4 -4 -4 -10z"/>
<path d="M7572 1294 c-7 -8 -8 -14 -3 -14 10 0 25 19 20 25 -2 1 -10 -3 -17
-11z"/>
<path d="M7719 1053 c-13 -17 -13 -17 6 -3 11 8 22 16 24 17 2 2 0 3 -6 3 -6
0 -17 -8 -24 -17z"/>
<path d="M7770 991 c0 -6 4 -13 10 -16 6 -3 7 1 4 9 -7 18 -14 21 -14 7z"/>
<path d="M8081 684 c0 -11 3 -14 6 -6 3 7 2 16 -1 19 -3 4 -6 -2 -5 -13z"/>
<path d="M8701 277 c-8 -10 -7 -14 2 -14 8 0 14 6 14 14 0 7 -1 13 -2 13 -2 0
-8 -6 -14 -13z"/>
<path d="M8906 188 c3 -5 10 -6 15 -3 13 9 11 12 -6 12 -8 0 -12 -4 -9 -9z"/>
<path d="M10420 101 c0 -6 4 -13 10 -16 6 -3 7 1 4 9 -7 18 -14 21 -14 7z"/>
</g>
</svg>
